<svg xmlns="http://www.w3.org/2000/svg" xmlns:xlink="http://www.w3.org/1999/xlink" width="500" zoomAndPan="magnify" viewBox="0 0 375 374.999991" height="500" preserveAspectRatio="xMidYMid meet" version="1.2"><defs><clipPath id="56dd062287"><path d="M 70 69 L 306.847656 69 L 306.847656 306.847656 L 70 306.847656 Z M 70 69 "/></clipPath></defs><g id="efdad586c7"><g clip-rule="nonzero" clip-path="url(#56dd062287)"><path style=" stroke:none;fill-rule:nonzero;fill:#79ee8d;fill-opacity:1;" d="M 188.441406 306.035156 C 253.84375 306.035156 306.863281 253.015625 306.863281 187.613281 C 306.863281 122.210938 253.84375 69.191406 188.441406 69.191406 C 123.039062 69.191406 70.023438 122.210938 70.023438 187.613281 C 70.023438 253.015625 123.039062 306.035156 188.441406 306.035156 Z M 188.441406 306.035156 "/></g><path style=" stroke:none;fill-rule:evenodd;fill:#0c098c;fill-opacity:1;" d="M 170.648438 90.335938 C 151.261719 90.335938 139.753906 102.535156 139.753906 112.9375 C 139.753906 118.777344 135.019531 123.507812 129.183594 123.507812 C 123.34375 123.507812 118.609375 118.777344 118.609375 112.9375 C 118.609375 86.699219 144.230469 69.191406 170.648438 69.191406 C 197.066406 69.191406 222.6875 86.699219 222.6875 112.9375 L 222.6875 182.152344 C 223.316406 184.65625 224.65625 188.320312 226.742188 191.582031 C 229.148438 195.339844 231.679688 197.273438 234.011719 197.832031 C 239.6875 199.195312 243.1875 204.902344 241.824219 210.578125 C 240.460938 216.257812 234.753906 219.753906 229.074219 218.390625 C 221.195312 216.5 215.464844 211.613281 211.480469 206.566406 C 201.546875 216.957031 186.238281 223.050781 170.648438 223.050781 C 144.230469 223.050781 118.609375 205.546875 118.609375 179.304688 C 118.609375 153.066406 144.230469 135.5625 170.648438 135.5625 L 201.542969 135.5625 L 201.542969 112.9375 C 201.542969 102.535156 190.035156 90.335938 170.648438 90.335938 Z M 170.648438 156.707031 L 201.542969 156.707031 L 201.542969 179.304688 C 201.542969 189.710938 190.035156 201.90625 170.648438 201.90625 C 151.261719 201.90625 139.753906 189.710938 139.753906 179.304688 C 139.753906 168.902344 151.261719 156.707031 170.648438 156.707031 Z M 87.398438 243.308594 C 82.921875 239.5625 76.253906 240.152344 72.503906 244.628906 C 68.757812 249.105469 69.347656 255.773438 73.824219 259.523438 C 96.9375 278.871094 141.230469 295.109375 194.625 292.5 C 221.144531 291.207031 244.046875 285.5625 262.21875 278.796875 L 272.332031 295.566406 C 273.644531 297.738281 275.855469 299.207031 278.363281 299.570312 C 280.871094 299.933594 283.410156 299.152344 285.28125 297.445312 C 295.25 288.339844 300.152344 274.894531 302.648438 264.808594 C 303.9375 259.609375 304.667969 254.929688 305.085938 251.546875 C 305.292969 249.847656 305.421875 248.460938 305.5 247.480469 C 305.539062 246.988281 305.566406 246.597656 305.582031 246.320312 L 305.605469 245.984375 L 305.609375 245.882812 L 305.609375 245.832031 C 305.609375 245.828125 305.609375 245.828125 297.160156 245.445312 L 305.609375 245.828125 C 305.765625 242.417969 303.851562 239.25 300.765625 237.792969 L 297.160156 245.445312 C 300.765625 237.792969 300.761719 237.792969 300.761719 237.792969 L 300.753906 237.789062 L 300.742188 237.785156 L 300.714844 237.769531 L 300.621094 237.726562 L 300.316406 237.589844 C 300.0625 237.476562 299.707031 237.316406 299.253906 237.121094 C 298.347656 236.734375 297.0625 236.199219 295.460938 235.59375 C 292.273438 234.382812 287.792969 232.847656 282.589844 231.5625 C 272.507812 229.066406 258.328125 227.132812 245.625 231.707031 C 243.238281 232.5625 241.367188 234.445312 240.515625 236.832031 C 239.667969 239.222656 239.9375 241.863281 241.246094 244.03125 L 251.082031 260.335938 C 235.421875 265.792969 215.976562 270.289062 193.59375 271.382812 C 144.429688 273.785156 105.671875 258.609375 87.398438 243.308594 Z M 87.398438 243.308594 "/></g></svg>