<svg xmlns="http://www.w3.org/2000/svg" xmlns:xlink="http://www.w3.org/1999/xlink" width="500" zoomAndPan="magnify" viewBox="0 0 375 374.999991" height="500" preserveAspectRatio="xMidYMid meet" version="1.2"><defs><clipPath id="79655c7e91"><path d="M 58.066406 58.066406 L 316.816406 58.066406 L 316.816406 316.816406 L 58.066406 316.816406 Z M 58.066406 58.066406 "/></clipPath><clipPath id="35c4aae506"><path d="M 316.816406 187.441406 C 316.816406 189.558594 316.761719 191.671875 316.660156 193.789062 C 316.554688 195.902344 316.398438 198.011719 316.191406 200.121094 C 315.984375 202.226562 315.726562 204.328125 315.414062 206.421875 C 315.101562 208.515625 314.742188 210.601562 314.328125 212.679688 C 313.914062 214.757812 313.453125 216.820312 312.9375 218.875 C 312.421875 220.929688 311.859375 222.96875 311.242188 224.996094 C 310.628906 227.019531 309.964844 229.03125 309.25 231.023438 C 308.539062 233.019531 307.777344 234.992188 306.964844 236.949219 C 306.15625 238.90625 305.296875 240.839844 304.394531 242.753906 C 303.488281 244.667969 302.535156 246.558594 301.539062 248.425781 C 300.539062 250.292969 299.496094 252.136719 298.40625 253.953125 C 297.320312 255.769531 296.1875 257.554688 295.011719 259.316406 C 293.835938 261.078125 292.617188 262.808594 291.355469 264.507812 C 290.09375 266.207031 288.789062 267.878906 287.449219 269.515625 C 286.105469 271.152344 284.722656 272.753906 283.300781 274.324219 C 281.878906 275.890625 280.417969 277.425781 278.921875 278.921875 C 277.425781 280.417969 275.890625 281.878906 274.324219 283.300781 C 272.753906 284.722656 271.152344 286.105469 269.515625 287.449219 C 267.878906 288.789062 266.207031 290.09375 264.507812 291.355469 C 262.808594 292.617188 261.078125 293.835938 259.316406 295.011719 C 257.554688 296.1875 255.769531 297.320312 253.953125 298.40625 C 252.136719 299.496094 250.292969 300.539062 248.425781 301.539062 C 246.558594 302.535156 244.667969 303.488281 242.753906 304.394531 C 240.839844 305.296875 238.90625 306.15625 236.949219 306.964844 C 234.992188 307.777344 233.019531 308.539062 231.023438 309.25 C 229.03125 309.964844 227.019531 310.628906 224.996094 311.242188 C 222.96875 311.859375 220.929688 312.421875 218.875 312.9375 C 216.820312 313.453125 214.757812 313.914062 212.679688 314.328125 C 210.601562 314.742188 208.515625 315.101562 206.421875 315.414062 C 204.328125 315.726562 202.226562 315.984375 200.121094 316.191406 C 198.011719 316.398438 195.902344 316.554688 193.789062 316.660156 C 191.671875 316.761719 189.558594 316.816406 187.441406 316.816406 C 185.320312 316.816406 183.207031 316.761719 181.089844 316.660156 C 178.976562 316.554688 176.867188 316.398438 174.757812 316.191406 C 172.652344 315.984375 170.550781 315.726562 168.457031 315.414062 C 166.363281 315.101562 164.277344 314.742188 162.199219 314.328125 C 160.125 313.914062 158.058594 313.453125 156.003906 312.9375 C 153.949219 312.421875 151.910156 311.859375 149.882812 311.242188 C 147.859375 310.628906 145.847656 309.964844 143.855469 309.25 C 141.859375 308.539062 139.886719 307.777344 137.929688 306.964844 C 135.972656 306.15625 134.039062 305.296875 132.125 304.394531 C 130.210938 303.488281 128.320312 302.535156 126.453125 301.539062 C 124.585938 300.539062 122.742188 299.496094 120.925781 298.40625 C 119.113281 297.320312 117.324219 296.1875 115.5625 295.011719 C 113.800781 293.835938 112.070312 292.617188 110.371094 291.355469 C 108.671875 290.09375 107 288.789062 105.363281 287.449219 C 103.726562 286.105469 102.125 284.722656 100.554688 283.300781 C 98.988281 281.878906 97.453125 280.417969 95.957031 278.921875 C 94.460938 277.425781 93 275.890625 91.578125 274.324219 C 90.15625 272.753906 88.773438 271.152344 87.429688 269.515625 C 86.089844 267.878906 84.785156 266.207031 83.523438 264.507812 C 82.261719 262.808594 81.042969 261.078125 79.867188 259.316406 C 78.691406 257.554688 77.558594 255.769531 76.472656 253.953125 C 75.382812 252.136719 74.339844 250.292969 73.339844 248.425781 C 72.34375 246.558594 71.390625 244.667969 70.484375 242.753906 C 69.582031 240.839844 68.722656 238.90625 67.914062 236.949219 C 67.101562 234.992188 66.339844 233.019531 65.628906 231.023438 C 64.914062 229.03125 64.25 227.019531 63.636719 224.996094 C 63.019531 222.96875 62.457031 220.929688 61.941406 218.875 C 61.425781 216.820312 60.964844 214.757812 60.550781 212.679688 C 60.136719 210.601562 59.777344 208.515625 59.464844 206.421875 C 59.152344 204.328125 58.894531 202.226562 58.6875 200.121094 C 58.480469 198.011719 58.324219 195.902344 58.21875 193.789062 C 58.117188 191.671875 58.066406 189.558594 58.066406 187.441406 C 58.066406 185.320312 58.117188 183.207031 58.21875 181.089844 C 58.324219 178.976562 58.480469 176.867188 58.6875 174.757812 C 58.894531 172.652344 59.152344 170.550781 59.464844 168.457031 C 59.777344 166.363281 60.136719 164.277344 60.550781 162.199219 C 60.964844 160.125 61.425781 158.058594 61.941406 156.003906 C 62.457031 153.949219 63.019531 151.910156 63.636719 149.882812 C 64.25 147.859375 64.914062 145.847656 65.628906 143.855469 C 66.339844 141.859375 67.101562 139.886719 67.914062 137.929688 C 68.722656 135.972656 69.582031 134.039062 70.484375 132.125 C 71.390625 130.210938 72.34375 128.320312 73.339844 126.453125 C 74.339844 124.585938 75.382812 122.742188 76.472656 120.925781 C 77.558594 119.113281 78.691406 117.324219 79.867188 115.5625 C 81.042969 113.800781 82.261719 112.070312 83.523438 110.371094 C 84.785156 108.671875 86.089844 107 87.429688 105.363281 C 88.773438 103.726562 90.15625 102.125 91.578125 100.554688 C 93 98.988281 94.460938 97.453125 95.957031 95.957031 C 97.453125 94.460938 98.988281 93 100.554688 91.578125 C 102.125 90.15625 103.726562 88.773438 105.363281 87.429688 C 107 86.089844 108.671875 84.785156 110.371094 83.523438 C 112.070312 82.261719 113.800781 81.042969 115.5625 79.867188 C 117.324219 78.691406 119.113281 77.558594 120.925781 76.472656 C 122.742188 75.382812 124.585938 74.339844 126.453125 73.339844 C 128.320312 72.34375 130.210938 71.390625 132.125 70.484375 C 134.039062 69.582031 135.972656 68.722656 137.929688 67.914062 C 139.886719 67.101562 141.859375 66.339844 143.855469 65.628906 C 145.847656 64.914062 147.859375 64.25 149.882812 63.636719 C 151.910156 63.019531 153.949219 62.457031 156.003906 61.941406 C 158.058594 61.425781 160.125 60.964844 162.199219 60.550781 C 164.277344 60.136719 166.363281 59.777344 168.457031 59.464844 C 170.550781 59.152344 172.652344 58.894531 174.757812 58.6875 C 176.867188 58.480469 178.976562 58.324219 181.089844 58.21875 C 183.207031 58.117188 185.320312 58.066406 187.441406 58.066406 C 189.558594 58.066406 191.671875 58.117188 193.789062 58.21875 C 195.902344 58.324219 198.011719 58.480469 200.121094 58.6875 C 202.226562 58.894531 204.328125 59.152344 206.421875 59.464844 C 208.515625 59.777344 210.601562 60.136719 212.679688 60.550781 C 214.757812 60.964844 216.820312 61.425781 218.875 61.941406 C 220.929688 62.457031 222.96875 63.019531 224.996094 63.636719 C 227.019531 64.25 229.03125 64.914062 231.023438 65.628906 C 233.019531 66.339844 234.992188 67.101562 236.949219 67.914062 C 238.90625 68.722656 240.839844 69.582031 242.753906 70.484375 C 244.667969 71.390625 246.558594 72.34375 248.425781 73.339844 C 250.292969 74.339844 252.136719 75.382812 253.953125 76.472656 C 255.769531 77.558594 257.554688 78.691406 259.316406 79.867188 C 261.078125 81.042969 262.808594 82.261719 264.507812 83.523438 C 266.207031 84.785156 267.878906 86.089844 269.515625 87.429688 C 271.152344 88.773438 272.753906 90.15625 274.324219 91.578125 C 275.890625 93 277.425781 94.460938 278.921875 95.957031 C 280.417969 97.453125 281.878906 98.988281 283.300781 100.554688 C 284.722656 102.125 286.105469 103.726562 287.449219 105.363281 C 288.789062 107 290.09375 108.671875 291.355469 110.371094 C 292.617188 112.070312 293.835938 113.800781 295.011719 115.5625 C 296.1875 117.324219 297.320312 119.113281 298.40625 120.925781 C 299.496094 122.742188 300.539062 124.585938 301.539062 126.453125 C 302.535156 128.320312 303.488281 130.210938 304.394531 132.125 C 305.296875 134.039062 306.15625 135.972656 306.964844 137.929688 C 307.777344 139.886719 308.539062 141.859375 309.25 143.855469 C 309.964844 145.847656 310.628906 147.859375 311.242188 149.882812 C 311.859375 151.910156 312.421875 153.949219 312.9375 156.003906 C 313.453125 158.058594 313.914062 160.125 314.328125 162.199219 C 314.742188 164.277344 315.101562 166.363281 315.414062 168.457031 C 315.726562 170.550781 315.984375 172.652344 316.191406 174.757812 C 316.398438 176.867188 316.554688 178.976562 316.660156 181.089844 C 316.761719 183.207031 316.816406 185.320312 316.816406 187.441406 Z M 316.816406 187.441406 "/></clipPath><linearGradient x1="0.0499014" gradientTransform="matrix(0.842834,0,0,0.842834,58.064517,58.064519)" y1="307.049892" x2="307.050605" gradientUnits="userSpaceOnUse" y2="0.0506006" id="3c2fcae20f"><stop style="stop-color:#fec053;stop-opacity:1;" offset="0"/><stop style="stop-color:#fec053;stop-opacity:1;" offset="0.125"/><stop style="stop-color:#fec053;stop-opacity:1;" offset="0.140625"/><stop style="stop-color:#febf53;stop-opacity:1;" offset="0.144531"/><stop style="stop-color:#febf53;stop-opacity:1;" offset="0.148438"/><stop style="stop-color:#febd53;stop-opacity:1;" offset="0.152344"/><stop style="stop-color:#febb52;stop-opacity:1;" offset="0.15625"/><stop style="stop-color:#feb952;stop-opacity:1;" offset="0.160156"/><stop style="stop-color:#fdb752;stop-opacity:1;" offset="0.164062"/><stop style="stop-color:#fdb652;stop-opacity:1;" offset="0.167969"/><stop style="stop-color:#fdb451;stop-opacity:1;" offset="0.171875"/><stop style="stop-color:#fdb251;stop-opacity:1;" offset="0.175781"/><stop style="stop-color:#fdb051;stop-opacity:1;" offset="0.179688"/><stop style="stop-color:#fdae51;stop-opacity:1;" offset="0.183594"/><stop style="stop-color:#fdac50;stop-opacity:1;" offset="0.1875"/><stop style="stop-color:#fcaa50;stop-opacity:1;" offset="0.191406"/><stop style="stop-color:#fca950;stop-opacity:1;" offset="0.195313"/><stop style="stop-color:#fca750;stop-opacity:1;" offset="0.199219"/><stop style="stop-color:#fca54f;stop-opacity:1;" offset="0.203125"/><stop style="stop-color:#fca34f;stop-opacity:1;" offset="0.207031"/><stop style="stop-color:#fca14f;stop-opacity:1;" offset="0.210938"/><stop style="stop-color:#fc9f4f;stop-opacity:1;" offset="0.214844"/><stop style="stop-color:#fb9d4e;stop-opacity:1;" offset="0.21875"/><stop style="stop-color:#fb9b4e;stop-opacity:1;" offset="0.222656"/><stop style="stop-color:#fb9a4e;stop-opacity:1;" offset="0.226563"/><stop style="stop-color:#fb984e;stop-opacity:1;" offset="0.230469"/><stop style="stop-color:#fb964d;stop-opacity:1;" offset="0.234375"/><stop style="stop-color:#fb944d;stop-opacity:1;" offset="0.238281"/><stop style="stop-color:#fb924d;stop-opacity:1;" offset="0.242188"/><stop style="stop-color:#fa904d;stop-opacity:1;" offset="0.246094"/><stop style="stop-color:#fa8e4c;stop-opacity:1;" offset="0.25"/><stop style="stop-color:#fa8c4c;stop-opacity:1;" offset="0.253906"/><stop style="stop-color:#fa8b4c;stop-opacity:1;" offset="0.257812"/><stop style="stop-color:#fa894c;stop-opacity:1;" offset="0.261719"/><stop style="stop-color:#fa874b;stop-opacity:1;" offset="0.265625"/><stop style="stop-color:#fa854b;stop-opacity:1;" offset="0.269531"/><stop style="stop-color:#f9834b;stop-opacity:1;" offset="0.273438"/><stop style="stop-color:#f9814b;stop-opacity:1;" offset="0.277344"/><stop style="stop-color:#f97f4b;stop-opacity:1;" offset="0.28125"/><stop style="stop-color:#f97d4a;stop-opacity:1;" offset="0.285156"/><stop style="stop-color:#f97c4a;stop-opacity:1;" offset="0.289062"/><stop style="stop-color:#f97a4a;stop-opacity:1;" offset="0.292969"/><stop style="stop-color:#f9784a;stop-opacity:1;" offset="0.296875"/><stop style="stop-color:#f87649;stop-opacity:1;" offset="0.300781"/><stop style="stop-color:#f87449;stop-opacity:1;" offset="0.304688"/><stop style="stop-color:#f87249;stop-opacity:1;" offset="0.308594"/><stop style="stop-color:#f87049;stop-opacity:1;" offset="0.3125"/><stop style="stop-color:#f86e48;stop-opacity:1;" offset="0.316406"/><stop style="stop-color:#f86d48;stop-opacity:1;" offset="0.320312"/><stop style="stop-color:#f86b48;stop-opacity:1;" offset="0.324219"/><stop style="stop-color:#f76948;stop-opacity:1;" offset="0.328125"/><stop style="stop-color:#f76747;stop-opacity:1;" offset="0.332031"/><stop style="stop-color:#f76547;stop-opacity:1;" offset="0.335938"/><stop style="stop-color:#f76347;stop-opacity:1;" offset="0.339844"/><stop style="stop-color:#f76147;stop-opacity:1;" offset="0.34375"/><stop style="stop-color:#f75f46;stop-opacity:1;" offset="0.347656"/><stop style="stop-color:#f75e46;stop-opacity:1;" offset="0.351562"/><stop style="stop-color:#f65c46;stop-opacity:1;" offset="0.355469"/><stop style="stop-color:#f65a46;stop-opacity:1;" offset="0.359375"/><stop style="stop-color:#f65845;stop-opacity:1;" offset="0.363281"/><stop style="stop-color:#f65645;stop-opacity:1;" offset="0.367188"/><stop style="stop-color:#f65445;stop-opacity:1;" offset="0.371094"/><stop style="stop-color:#f65245;stop-opacity:1;" offset="0.375"/><stop style="stop-color:#f65044;stop-opacity:1;" offset="0.378906"/><stop style="stop-color:#f54f44;stop-opacity:1;" offset="0.382812"/><stop style="stop-color:#f54d44;stop-opacity:1;" offset="0.386719"/><stop style="stop-color:#f54b44;stop-opacity:1;" offset="0.390625"/><stop style="stop-color:#f54943;stop-opacity:1;" offset="0.394531"/><stop style="stop-color:#f54743;stop-opacity:1;" offset="0.398438"/><stop style="stop-color:#f54543;stop-opacity:1;" offset="0.402344"/><stop style="stop-color:#f54343;stop-opacity:1;" offset="0.40625"/><stop style="stop-color:#f54142;stop-opacity:1;" offset="0.410156"/><stop style="stop-color:#f44042;stop-opacity:1;" offset="0.414063"/><stop style="stop-color:#f43e42;stop-opacity:1;" offset="0.417969"/><stop style="stop-color:#f43c42;stop-opacity:1;" offset="0.421875"/><stop style="stop-color:#f43a41;stop-opacity:1;" offset="0.425781"/><stop style="stop-color:#f43841;stop-opacity:1;" offset="0.429688"/><stop style="stop-color:#f43641;stop-opacity:1;" offset="0.433594"/><stop style="stop-color:#f43441;stop-opacity:1;" offset="0.4375"/><stop style="stop-color:#f33240;stop-opacity:1;" offset="0.441406"/><stop style="stop-color:#f33140;stop-opacity:1;" offset="0.445313"/><stop style="stop-color:#f32f40;stop-opacity:1;" offset="0.449219"/><stop style="stop-color:#f32d40;stop-opacity:1;" offset="0.453125"/><stop style="stop-color:#f32b3f;stop-opacity:1;" offset="0.457031"/><stop style="stop-color:#f3293f;stop-opacity:1;" offset="0.460938"/><stop style="stop-color:#f3273f;stop-opacity:1;" offset="0.464844"/><stop style="stop-color:#f2253f;stop-opacity:1;" offset="0.46875"/><stop style="stop-color:#f2233e;stop-opacity:1;" offset="0.472656"/><stop style="stop-color:#f2223e;stop-opacity:1;" offset="0.476562"/><stop style="stop-color:#f1213f;stop-opacity:1;" offset="0.480469"/><stop style="stop-color:#f02041;stop-opacity:1;" offset="0.484375"/><stop style="stop-color:#ef2043;stop-opacity:1;" offset="0.488281"/><stop style="stop-color:#ee2046;stop-opacity:1;" offset="0.492188"/><stop style="stop-color:#ec2048;stop-opacity:1;" offset="0.496094"/><stop style="stop-color:#eb204a;stop-opacity:1;" offset="0.5"/><stop style="stop-color:#ea204d;stop-opacity:1;" offset="0.503906"/><stop style="stop-color:#e8204f;stop-opacity:1;" offset="0.507812"/><stop style="stop-color:#e72052;stop-opacity:1;" offset="0.511719"/><stop style="stop-color:#e62054;stop-opacity:1;" offset="0.515625"/><stop style="stop-color:#e42057;stop-opacity:1;" offset="0.519531"/><stop style="stop-color:#e32059;stop-opacity:1;" offset="0.523438"/><stop style="stop-color:#e2205b;stop-opacity:1;" offset="0.527344"/><stop style="stop-color:#e0205e;stop-opacity:1;" offset="0.53125"/><stop style="stop-color:#df2060;stop-opacity:1;" offset="0.535156"/><stop style="stop-color:#de2063;stop-opacity:1;" offset="0.539062"/><stop style="stop-color:#dc2065;stop-opacity:1;" offset="0.542969"/><stop style="stop-color:#db2068;stop-opacity:1;" offset="0.546875"/><stop style="stop-color:#d9206a;stop-opacity:1;" offset="0.550781"/><stop style="stop-color:#d8206d;stop-opacity:1;" offset="0.554688"/><stop style="stop-color:#d7206f;stop-opacity:1;" offset="0.558594"/><stop style="stop-color:#d52071;stop-opacity:1;" offset="0.5625"/><stop style="stop-color:#d41f74;stop-opacity:1;" offset="0.566406"/><stop style="stop-color:#d31f76;stop-opacity:1;" offset="0.570312"/><stop style="stop-color:#d11f79;stop-opacity:1;" offset="0.574219"/><stop style="stop-color:#d01f7b;stop-opacity:1;" offset="0.578125"/><stop style="stop-color:#cf1f7e;stop-opacity:1;" offset="0.582031"/><stop style="stop-color:#cd1f80;stop-opacity:1;" offset="0.585938"/><stop style="stop-color:#cc1f82;stop-opacity:1;" offset="0.589844"/><stop style="stop-color:#cb1f85;stop-opacity:1;" offset="0.59375"/><stop style="stop-color:#c91f87;stop-opacity:1;" offset="0.597656"/><stop style="stop-color:#c81f8a;stop-opacity:1;" offset="0.601562"/><stop style="stop-color:#c71f8c;stop-opacity:1;" offset="0.605469"/><stop style="stop-color:#c51f8f;stop-opacity:1;" offset="0.609375"/><stop style="stop-color:#c41f91;stop-opacity:1;" offset="0.613281"/><stop style="stop-color:#c21f93;stop-opacity:1;" offset="0.617187"/><stop style="stop-color:#c11f96;stop-opacity:1;" offset="0.621094"/><stop style="stop-color:#c01f98;stop-opacity:1;" offset="0.625"/><stop style="stop-color:#be1f9b;stop-opacity:1;" offset="0.628906"/><stop style="stop-color:#bd1f9d;stop-opacity:1;" offset="0.632812"/><stop style="stop-color:#bc1fa0;stop-opacity:1;" offset="0.636719"/><stop style="stop-color:#ba1fa2;stop-opacity:1;" offset="0.640625"/><stop style="stop-color:#b91fa4;stop-opacity:1;" offset="0.644531"/><stop style="stop-color:#b81fa7;stop-opacity:1;" offset="0.648437"/><stop style="stop-color:#b620a8;stop-opacity:1;" offset="0.652344"/><stop style="stop-color:#b420a9;stop-opacity:1;" offset="0.65625"/><stop style="stop-color:#b221aa;stop-opacity:1;" offset="0.660156"/><stop style="stop-color:#b022ab;stop-opacity:1;" offset="0.664062"/><stop style="stop-color:#ae23ac;stop-opacity:1;" offset="0.667969"/><stop style="stop-color:#ac24ad;stop-opacity:1;" offset="0.671875"/><stop style="stop-color:#aa25ae;stop-opacity:1;" offset="0.675781"/><stop style="stop-color:#a826af;stop-opacity:1;" offset="0.679687"/><stop style="stop-color:#a727b0;stop-opacity:1;" offset="0.683594"/><stop style="stop-color:#a528b0;stop-opacity:1;" offset="0.6875"/><stop style="stop-color:#a329b1;stop-opacity:1;" offset="0.691406"/><stop style="stop-color:#a12ab2;stop-opacity:1;" offset="0.695312"/><stop style="stop-color:#9f2bb3;stop-opacity:1;" offset="0.699219"/><stop style="stop-color:#9d2cb4;stop-opacity:1;" offset="0.703125"/><stop style="stop-color:#9b2db5;stop-opacity:1;" offset="0.707031"/><stop style="stop-color:#992eb6;stop-opacity:1;" offset="0.710938"/><stop style="stop-color:#972fb7;stop-opacity:1;" offset="0.714844"/><stop style="stop-color:#9530b8;stop-opacity:1;" offset="0.71875"/><stop style="stop-color:#9331b8;stop-opacity:1;" offset="0.722656"/><stop style="stop-color:#9132b9;stop-opacity:1;" offset="0.726563"/><stop style="stop-color:#8f33ba;stop-opacity:1;" offset="0.730469"/><stop style="stop-color:#8e34bb;stop-opacity:1;" offset="0.734375"/><stop style="stop-color:#8c35bc;stop-opacity:1;" offset="0.738281"/><stop style="stop-color:#8a36bd;stop-opacity:1;" offset="0.742188"/><stop style="stop-color:#8837be;stop-opacity:1;" offset="0.746094"/><stop style="stop-color:#8638bf;stop-opacity:1;" offset="0.75"/><stop style="stop-color:#8439bf;stop-opacity:1;" offset="0.753906"/><stop style="stop-color:#823ac0;stop-opacity:1;" offset="0.757812"/><stop style="stop-color:#803ac1;stop-opacity:1;" offset="0.761719"/><stop style="stop-color:#7e3bc2;stop-opacity:1;" offset="0.765625"/><stop style="stop-color:#7c3cc3;stop-opacity:1;" offset="0.769531"/><stop style="stop-color:#7a3dc4;stop-opacity:1;" offset="0.773438"/><stop style="stop-color:#783ec5;stop-opacity:1;" offset="0.777344"/><stop style="stop-color:#763fc6;stop-opacity:1;" offset="0.78125"/><stop style="stop-color:#7440c7;stop-opacity:1;" offset="0.785156"/><stop style="stop-color:#7341c7;stop-opacity:1;" offset="0.789063"/><stop style="stop-color:#7142c8;stop-opacity:1;" offset="0.792969"/><stop style="stop-color:#6f43c9;stop-opacity:1;" offset="0.796875"/><stop style="stop-color:#6d44ca;stop-opacity:1;" offset="0.800781"/><stop style="stop-color:#6b45cb;stop-opacity:1;" offset="0.804688"/><stop style="stop-color:#6946cc;stop-opacity:1;" offset="0.808594"/><stop style="stop-color:#6747cd;stop-opacity:1;" offset="0.8125"/><stop style="stop-color:#6548ce;stop-opacity:1;" offset="0.816406"/><stop style="stop-color:#6349cf;stop-opacity:1;" offset="0.820313"/><stop style="stop-color:#614acf;stop-opacity:1;" offset="0.824219"/><stop style="stop-color:#5f4bd0;stop-opacity:1;" offset="0.828125"/><stop style="stop-color:#5d4cd1;stop-opacity:1;" offset="0.832031"/><stop style="stop-color:#5b4dd2;stop-opacity:1;" offset="0.835938"/><stop style="stop-color:#5a4ed3;stop-opacity:1;" offset="0.839844"/><stop style="stop-color:#584fd4;stop-opacity:1;" offset="0.84375"/><stop style="stop-color:#5650d5;stop-opacity:1;" offset="0.847656"/><stop style="stop-color:#5451d6;stop-opacity:1;" offset="0.851563"/><stop style="stop-color:#5351d6;stop-opacity:1;" offset="0.859375"/><stop style="stop-color:#5351d6;stop-opacity:1;" offset="0.875"/><stop style="stop-color:#5351d6;stop-opacity:1;" offset="1"/></linearGradient></defs><g id="378057f151"><g clip-rule="nonzero" clip-path="url(#79655c7e91)"><g clip-rule="nonzero" clip-path="url(#35c4aae506)"><path style=" stroke:none;fill-rule:nonzero;fill:url(#3c2fcae20f);" d="M 58.066406 58.066406 L 58.066406 316.816406 L 316.816406 316.816406 L 316.816406 58.066406 Z M 58.066406 58.066406 "/></g></g><path style=" stroke:none;fill-rule:nonzero;fill:#ffffff;fill-opacity:1;" d="M 222.152344 265.519531 L 153.179688 265.519531 C 129.265625 265.519531 109.8125 246.066406 109.8125 222.152344 L 109.8125 153.179688 C 109.8125 129.265625 129.265625 109.8125 153.179688 109.8125 L 222.152344 109.8125 C 246.066406 109.8125 265.519531 129.265625 265.519531 153.179688 L 265.519531 222.152344 C 265.519531 246.066406 246.066406 265.519531 222.152344 265.519531 Z M 153.179688 120.355469 C 135.082031 120.355469 120.355469 135.082031 120.355469 153.179688 L 120.355469 222.152344 C 120.355469 240.25 135.082031 254.976562 153.179688 254.976562 L 222.152344 254.976562 C 240.25 254.976562 254.976562 240.25 254.976562 222.152344 L 254.976562 153.179688 C 254.976562 135.082031 240.25 120.355469 222.152344 120.355469 Z M 153.179688 120.355469 "/><path style=" stroke:none;fill-rule:nonzero;fill:#ffffff;fill-opacity:1;" d="M 187.667969 226.234375 C 166.402344 226.234375 149.105469 208.933594 149.105469 187.667969 C 149.105469 166.402344 166.402344 149.105469 187.667969 149.105469 C 208.933594 149.105469 226.234375 166.402344 226.234375 187.667969 C 226.234375 208.933594 208.933594 226.234375 187.667969 226.234375 Z M 187.667969 159.640625 C 172.214844 159.640625 159.644531 172.210938 159.644531 187.664062 C 159.644531 203.117188 172.21875 215.6875 187.667969 215.6875 C 203.117188 215.6875 215.691406 203.117188 215.691406 187.664062 C 215.691406 172.210938 203.121094 159.640625 187.667969 159.640625 Z M 187.667969 159.640625 "/></g></svg>