<svg xmlns="http://www.w3.org/2000/svg" xmlns:xlink="http://www.w3.org/1999/xlink" width="500" zoomAndPan="magnify" viewBox="0 0 375 374.999991" height="500" preserveAspectRatio="xMidYMid meet" version="1.0"><defs><clipPath id="fc501c5daa"><path d="M 7.003906 7.003906 L 367.753906 7.003906 L 367.753906 367.753906 L 7.003906 367.753906 Z M 7.003906 7.003906 " clip-rule="nonzero"/></clipPath></defs><g clip-path="url(#fc501c5daa)"><path fill="#006210" d="M 367.988281 187.496094 C 367.988281 190.449219 367.914062 193.398438 367.769531 196.351562 C 367.625 199.300781 367.40625 202.246094 367.117188 205.1875 C 366.828125 208.125 366.464844 211.054688 366.03125 213.976562 C 365.597656 216.898438 365.09375 219.808594 364.519531 222.707031 C 363.941406 225.605469 363.296875 228.484375 362.578125 231.351562 C 361.859375 234.214844 361.070312 237.0625 360.214844 239.886719 C 359.355469 242.714844 358.429688 245.519531 357.4375 248.300781 C 356.441406 251.082031 355.378906 253.835938 354.246094 256.566406 C 353.117188 259.292969 351.921875 261.996094 350.65625 264.664062 C 349.394531 267.335938 348.066406 269.972656 346.675781 272.578125 C 345.28125 275.183594 343.824219 277.753906 342.308594 280.285156 C 340.789062 282.820312 339.210938 285.3125 337.566406 287.769531 C 335.925781 290.226562 334.226562 292.640625 332.46875 295.011719 C 330.707031 297.386719 328.890625 299.714844 327.015625 301.996094 C 325.144531 304.28125 323.214844 306.515625 321.230469 308.707031 C 319.246094 310.894531 317.210938 313.03125 315.121094 315.121094 C 313.03125 317.210938 310.894531 319.246094 308.707031 321.230469 C 306.515625 323.214844 304.28125 325.144531 301.996094 327.015625 C 299.714844 328.890625 297.386719 330.707031 295.011719 332.46875 C 292.640625 334.226562 290.226562 335.925781 287.769531 337.566406 C 285.3125 339.210938 282.820312 340.789062 280.285156 342.308594 C 277.753906 343.824219 275.183594 345.28125 272.578125 346.675781 C 269.972656 348.066406 267.335938 349.394531 264.664062 350.65625 C 261.996094 351.921875 259.292969 353.117188 256.566406 354.246094 C 253.835938 355.378906 251.082031 356.441406 248.300781 357.4375 C 245.519531 358.429688 242.714844 359.355469 239.886719 360.214844 C 237.0625 361.070312 234.214844 361.859375 231.351562 362.578125 C 228.484375 363.296875 225.605469 363.941406 222.707031 364.519531 C 219.808594 365.09375 216.898438 365.597656 213.976562 366.03125 C 211.054688 366.464844 208.125 366.828125 205.1875 367.117188 C 202.246094 367.40625 199.300781 367.625 196.351562 367.769531 C 193.398438 367.914062 190.449219 367.988281 187.496094 367.988281 C 184.539062 367.988281 181.589844 367.914062 178.636719 367.769531 C 175.6875 367.625 172.742188 367.40625 169.804688 367.117188 C 166.863281 366.828125 163.933594 366.464844 161.011719 366.03125 C 158.089844 365.597656 155.179688 365.09375 152.28125 364.519531 C 149.386719 363.941406 146.503906 363.296875 143.636719 362.578125 C 140.773438 361.859375 137.925781 361.070312 135.101562 360.214844 C 132.273438 359.355469 129.46875 358.429688 126.6875 357.4375 C 123.90625 356.441406 121.152344 355.378906 118.421875 354.246094 C 115.695312 353.117188 112.996094 351.921875 110.324219 350.65625 C 107.652344 349.394531 105.015625 348.066406 102.410156 346.675781 C 99.804688 345.28125 97.238281 343.824219 94.703125 342.308594 C 92.167969 340.789062 89.675781 339.210938 87.21875 337.566406 C 84.761719 335.925781 82.347656 334.226562 79.976562 332.46875 C 77.601562 330.707031 75.273438 328.890625 72.992188 327.015625 C 70.707031 325.144531 68.472656 323.214844 66.28125 321.230469 C 64.09375 319.246094 61.957031 317.210938 59.867188 315.121094 C 57.777344 313.03125 55.742188 310.894531 53.757812 308.707031 C 51.773438 306.515625 49.847656 304.28125 47.972656 301.996094 C 46.097656 299.714844 44.28125 297.386719 42.523438 295.011719 C 40.761719 292.640625 39.0625 290.226562 37.421875 287.769531 C 35.78125 285.3125 34.199219 282.820312 32.679688 280.285156 C 31.164062 277.753906 29.707031 275.183594 28.3125 272.578125 C 26.921875 269.972656 25.59375 267.335938 24.332031 264.664062 C 23.066406 261.996094 21.871094 259.292969 20.742188 256.566406 C 19.609375 253.835938 18.546875 251.082031 17.554688 248.300781 C 16.558594 245.519531 15.632812 242.714844 14.773438 239.886719 C 13.917969 237.0625 13.128906 234.214844 12.410156 231.351562 C 11.695312 228.484375 11.046875 225.605469 10.46875 222.707031 C 9.894531 219.808594 9.390625 216.898438 8.957031 213.976562 C 8.523438 211.054688 8.160156 208.125 7.871094 205.1875 C 7.582031 202.246094 7.363281 199.300781 7.21875 196.351562 C 7.074219 193.398438 7.003906 190.449219 7.003906 187.496094 C 7.003906 184.539062 7.074219 181.589844 7.21875 178.636719 C 7.363281 175.6875 7.582031 172.742188 7.871094 169.804688 C 8.160156 166.863281 8.523438 163.933594 8.957031 161.011719 C 9.390625 158.089844 9.894531 155.179688 10.46875 152.28125 C 11.046875 149.386719 11.695312 146.503906 12.410156 143.636719 C 13.128906 140.773438 13.917969 137.925781 14.773438 135.101562 C 15.632812 132.273438 16.558594 129.46875 17.554688 126.6875 C 18.546875 123.90625 19.609375 121.152344 20.742188 118.421875 C 21.871094 115.695312 23.066406 112.996094 24.332031 110.324219 C 25.59375 107.652344 26.921875 105.015625 28.3125 102.410156 C 29.707031 99.804688 31.164062 97.238281 32.679688 94.703125 C 34.199219 92.167969 35.78125 89.675781 37.421875 87.21875 C 39.0625 84.761719 40.761719 82.347656 42.523438 79.976562 C 44.28125 77.601562 46.097656 75.273438 47.972656 72.992188 C 49.847656 70.707031 51.773438 68.472656 53.757812 66.28125 C 55.742188 64.09375 57.777344 61.957031 59.867188 59.867188 C 61.957031 57.777344 64.09375 55.742188 66.28125 53.757812 C 68.472656 51.773438 70.707031 49.847656 72.992188 47.972656 C 75.273438 46.097656 77.601562 44.28125 79.976562 42.523438 C 82.347656 40.761719 84.761719 39.0625 87.21875 37.421875 C 89.675781 35.78125 92.167969 34.199219 94.703125 32.679688 C 97.238281 31.164062 99.804688 29.707031 102.410156 28.3125 C 105.015625 26.921875 107.652344 25.59375 110.324219 24.332031 C 112.996094 23.066406 115.695312 21.871094 118.421875 20.742188 C 121.152344 19.609375 123.90625 18.546875 126.6875 17.554688 C 129.46875 16.558594 132.273438 15.632812 135.101562 14.773438 C 137.925781 13.917969 140.773438 13.128906 143.636719 12.410156 C 146.503906 11.695312 149.386719 11.046875 152.28125 10.46875 C 155.179688 9.894531 158.089844 9.390625 161.011719 8.957031 C 163.933594 8.523438 166.863281 8.160156 169.804688 7.871094 C 172.742188 7.582031 175.6875 7.363281 178.636719 7.21875 C 181.589844 7.074219 184.539062 7.003906 187.496094 7.003906 C 190.449219 7.003906 193.398438 7.074219 196.351562 7.21875 C 199.300781 7.363281 202.246094 7.582031 205.1875 7.871094 C 208.125 8.160156 211.054688 8.523438 213.976562 8.957031 C 216.898438 9.390625 219.808594 9.894531 222.707031 10.46875 C 225.605469 11.046875 228.484375 11.695312 231.351562 12.410156 C 234.214844 13.128906 237.0625 13.917969 239.886719 14.773438 C 242.714844 15.632812 245.519531 16.558594 248.300781 17.554688 C 251.082031 18.546875 253.835938 19.609375 256.566406 20.742188 C 259.292969 21.871094 261.996094 23.066406 264.664062 24.332031 C 267.335938 25.59375 269.972656 26.921875 272.578125 28.3125 C 275.183594 29.707031 277.753906 31.164062 280.285156 32.679688 C 282.820312 34.199219 285.3125 35.78125 287.769531 37.421875 C 290.226562 39.0625 292.640625 40.761719 295.011719 42.523438 C 297.386719 44.28125 299.714844 46.097656 301.996094 47.972656 C 304.28125 49.847656 306.515625 51.773438 308.707031 53.757812 C 310.894531 55.742188 313.03125 57.777344 315.121094 59.867188 C 317.210938 61.957031 319.246094 64.09375 321.230469 66.28125 C 323.214844 68.472656 325.144531 70.707031 327.015625 72.992188 C 328.890625 75.273438 330.707031 77.601562 332.46875 79.976562 C 334.226562 82.347656 335.925781 84.761719 337.566406 87.21875 C 339.210938 89.675781 340.789062 92.167969 342.308594 94.703125 C 343.824219 97.238281 345.28125 99.804688 346.675781 102.410156 C 348.066406 105.015625 349.394531 107.652344 350.65625 110.324219 C 351.921875 112.996094 353.117188 115.695312 354.246094 118.421875 C 355.378906 121.152344 356.441406 123.90625 357.433594 126.6875 C 358.429688 129.46875 359.355469 132.273438 360.214844 135.101562 C 361.070312 137.925781 361.859375 140.773438 362.578125 143.636719 C 363.296875 146.503906 363.941406 149.386719 364.519531 152.28125 C 365.09375 155.179688 365.597656 158.089844 366.03125 161.011719 C 366.464844 163.933594 366.828125 166.863281 367.117188 169.804688 C 367.40625 172.742188 367.625 175.6875 367.769531 178.636719 C 367.914062 181.589844 367.988281 184.539062 367.988281 187.496094 Z M 367.988281 187.496094 " fill-opacity="1" fill-rule="nonzero"/></g><path fill="#f5fff7" d="M 94.335938 245.847656 C 83.355469 245.847656 74.40625 254.800781 74.40625 265.777344 C 74.40625 276.757812 83.355469 285.707031 94.335938 285.707031 C 105.3125 285.707031 114.261719 276.757812 114.261719 265.777344 C 114.261719 254.792969 105.3125 245.847656 94.335938 245.847656 Z M 94.335938 245.847656 " fill-opacity="1" fill-rule="evenodd"/><path fill="#f5fff7" d="M 145.324219 205.160156 L 121.554688 205.160156 C 119.671875 205.160156 118.09375 203.582031 118.09375 201.699219 C 118.09375 199.820312 119.671875 198.242188 121.554688 198.242188 L 122.308594 198.242188 L 122.308594 176.8125 L 122.078125 176.8125 C 120.195312 176.8125 118.621094 175.238281 118.621094 173.355469 C 118.621094 171.472656 120.195312 169.894531 122.078125 169.894531 L 129.445312 169.894531 C 131.328125 169.894531 132.902344 171.472656 132.902344 173.355469 C 132.902344 175.238281 131.328125 176.8125 129.445312 176.8125 L 129.214844 176.8125 L 129.214844 198.242188 L 141.710938 198.242188 L 141.710938 196.589844 C 141.710938 194.707031 143.289062 193.132812 145.171875 193.132812 C 147.050781 193.132812 148.628906 194.707031 148.628906 196.589844 L 148.628906 201.699219 C 148.78125 203.648438 147.28125 205.160156 145.324219 205.160156 Z M 187.371094 101.671875 C 140.070312 101.671875 101.558594 140.171875 101.558594 187.484375 C 101.558594 234.796875 140.058594 273.296875 187.371094 273.296875 C 234.679688 273.296875 273.183594 234.796875 273.183594 187.484375 C 273.25 140.183594 234.746094 101.671875 187.371094 101.671875 Z M 169.238281 205.160156 L 157.953125 205.160156 C 156.070312 205.160156 154.496094 203.582031 154.496094 201.699219 C 154.496094 199.820312 156.070312 198.242188 157.953125 198.242188 L 160.132812 198.242188 L 160.132812 176.8125 L 157.953125 176.8125 C 156.070312 176.8125 154.496094 175.238281 154.496094 173.355469 C 154.496094 171.472656 156.070312 169.894531 157.953125 169.894531 L 169.238281 169.894531 C 171.117188 169.894531 172.695312 171.472656 172.695312 173.355469 C 172.695312 175.238281 171.117188 176.8125 169.238281 176.8125 L 167.058594 176.8125 L 167.058594 198.242188 L 169.238281 198.242188 C 171.117188 198.242188 172.695312 199.820312 172.695312 201.699219 C 172.703125 203.648438 171.117188 205.160156 169.238281 205.160156 Z M 216.097656 205.160156 L 211.808594 205.160156 C 210.835938 205.160156 209.851562 204.710938 209.25 203.957031 L 191.574219 182.898438 L 191.574219 198.242188 L 191.804688 198.242188 C 193.683594 198.242188 195.261719 199.820312 195.261719 201.699219 C 195.261719 203.582031 193.683594 205.160156 191.804688 205.160156 L 184.359375 205.160156 C 182.476562 205.160156 180.902344 203.582031 180.902344 201.699219 C 180.902344 199.820312 182.476562 198.242188 184.359375 198.242188 L 184.65625 198.242188 L 184.65625 176.8125 L 183.824219 176.8125 C 181.945312 176.8125 180.367188 175.238281 180.367188 173.355469 C 180.367188 171.472656 181.945312 169.894531 183.824219 169.894531 L 188.117188 169.894531 C 189.167969 169.894531 190.148438 170.34375 190.820312 171.175781 L 208.492188 192.234375 L 208.492188 176.8125 L 208.265625 176.8125 C 206.382812 176.8125 204.804688 175.238281 204.804688 173.355469 C 204.804688 171.472656 206.382812 169.894531 208.265625 169.894531 L 215.628906 169.894531 C 217.511719 169.894531 219.089844 171.472656 219.089844 173.355469 C 219.089844 175.238281 217.511719 176.8125 215.628906 176.8125 L 215.402344 176.8125 L 215.402344 198.242188 L 216.15625 198.242188 C 218.039062 198.242188 219.613281 199.820312 219.613281 201.699219 C 219.558594 203.648438 217.972656 205.160156 216.097656 205.160156 Z M 229.332031 205.160156 C 227.449219 205.160156 225.871094 203.582031 225.871094 201.699219 C 225.871094 199.820312 227.449219 198.242188 229.332031 198.242188 L 230.230469 198.242188 L 230.230469 176.8125 L 229.332031 176.8125 C 227.449219 176.8125 225.871094 175.238281 225.871094 173.355469 C 225.871094 171.472656 227.449219 169.894531 229.332031 169.894531 L 253.167969 169.894531 C 255.050781 169.894531 256.625 171.472656 256.625 173.355469 L 256.625 178.464844 C 256.625 180.347656 255.050781 181.925781 253.167969 181.925781 C 251.285156 181.925781 249.710938 180.347656 249.710938 178.464844 L 249.710938 176.8125 L 237.222656 176.8125 L 237.222656 183.960938 L 240.527344 183.960938 L 240.527344 182.527344 C 240.527344 180.644531 242.105469 179.066406 243.988281 179.066406 C 245.867188 179.066406 247.445312 180.644531 247.445312 182.527344 L 247.445312 192.453125 C 247.445312 194.335938 245.867188 195.910156 243.988281 195.910156 C 242.105469 195.910156 240.527344 194.335938 240.527344 192.453125 L 240.527344 190.953125 L 237.222656 190.953125 L 237.222656 198.25 L 249.710938 198.25 L 249.710938 196.65625 C 249.710938 194.773438 251.285156 193.199219 253.167969 193.199219 C 255.050781 193.199219 256.625 194.773438 256.625 196.65625 L 256.625 201.691406 C 256.625 203.574219 255.050781 205.148438 253.167969 205.148438 L 229.332031 205.148438 Z M 229.332031 205.160156 " fill-opacity="1" fill-rule="evenodd"/><path fill="#f5fff7" d="M 260.542969 109.191406 C 260.542969 120.167969 269.496094 129.121094 280.472656 129.121094 C 291.449219 129.121094 300.402344 120.167969 300.402344 109.191406 C 300.402344 98.214844 291.449219 89.261719 280.472656 89.261719 C 269.496094 89.261719 260.542969 98.214844 260.542969 109.191406 Z M 260.542969 109.191406 " fill-opacity="1" fill-rule="evenodd"/></svg>