<?xml version="1.0" encoding="utf-8"?>
<!-- Generator: Adobe Illustrator 28.0.0, SVG Export Plug-In . SVG Version: 6.00 Build 0)  -->
<svg version="1.1" id="Layer_1" xmlns="http://www.w3.org/2000/svg" xmlns:xlink="http://www.w3.org/1999/xlink" x="0px" y="0px"
	 viewBox="0 0 512 512" style="enable-background:new 0 0 512 512;" xml:space="preserve">
<style type="text/css">
	.st0{fill:#FFFFFF;}
</style>
<g>
	<path class="st0" d="M423.9,242.6c-4.2,0-7.7,3.4-7.7,7.7v89.4H166V89.4h89.4c4.2,0,7.7-3.4,7.7-7.7s-3.4-7.7-7.7-7.7h-97
		c-4.2,0-7.7,3.4-7.7,7.7v68.9H86.8c-4.2,0-7.7,3.4-7.7,7.7v265.6c0,4.2,3.4,7.7,7.7,7.7h265.6c4.2,0,7.7-3.4,7.7-7.7V355h63.8
		c4.2,0,7.7-3.4,7.7-7.7v-97C431.6,246,428.1,242.6,423.9,242.6z M344.7,416.2H94.5V166h56.2v181.3c0,4.2,3.4,7.7,7.7,7.7h186.4
		V416.2z"/>
	<path class="st0" d="M423.9,74.1h-97c-4.2,0-7.7,3.4-7.7,7.7c0,4.2,3.4,7.7,7.7,7.7h78.5L280.6,214.2c-3,3-3,7.8,0,10.8
		c1.5,1.5,3.5,2.2,5.4,2.2s3.9-0.7,5.4-2.2l124.8-124.8v78.5c0,4.2,3.4,7.7,7.7,7.7s7.7-3.4,7.7-7.7v-97
		C431.6,77.5,428.1,74.1,423.9,74.1z"/>
</g>
</svg>
