<svg xmlns="http://www.w3.org/2000/svg" xmlns:xlink="http://www.w3.org/1999/xlink" width="500" zoomAndPan="magnify" viewBox="0 0 375 374.999991" height="500" preserveAspectRatio="xMidYMid meet" version="1.2"><defs><clipPath id="15a694539a"><path d="M 58.164062 58.164062 L 316.914062 58.164062 L 316.914062 316.914062 L 58.164062 316.914062 Z M 58.164062 58.164062 "/></clipPath></defs><g id="0285c7afd7"><path style=" stroke:none;fill-rule:nonzero;fill:#000000;fill-opacity:1;" d="M 266.289062 153.789062 C 265.921875 153.789062 265.554688 153.828125 265.191406 153.898438 C 264.832031 153.96875 264.480469 154.078125 264.136719 154.21875 C 263.796875 154.359375 263.472656 154.53125 263.164062 154.738281 C 262.859375 154.945312 262.574219 155.175781 262.3125 155.4375 C 262.050781 155.699219 261.820312 155.984375 261.613281 156.289062 C 261.40625 156.597656 261.234375 156.921875 261.09375 157.261719 C 260.953125 157.605469 260.84375 157.957031 260.773438 158.316406 C 260.703125 158.679688 260.664062 159.046875 260.664062 159.414062 L 260.664062 231.09375 C 260.664062 231.558594 260.617188 232.019531 260.527344 232.472656 C 260.4375 232.929688 260.300781 233.371094 260.125 233.796875 C 259.945312 234.226562 259.726562 234.632812 259.46875 235.019531 C 259.210938 235.40625 258.917969 235.761719 258.589844 236.089844 C 258.261719 236.417969 257.90625 236.710938 257.519531 236.96875 C 257.132812 237.226562 256.726562 237.445312 256.296875 237.625 C 255.871094 237.800781 255.429688 237.9375 254.972656 238.027344 C 254.519531 238.117188 254.058594 238.164062 253.59375 238.164062 L 121.484375 238.164062 C 121.023438 238.164062 120.5625 238.117188 120.105469 238.027344 C 119.652344 237.9375 119.210938 237.800781 118.78125 237.625 C 118.351562 237.445312 117.945312 237.226562 117.558594 236.96875 C 117.175781 236.710938 116.816406 236.417969 116.488281 236.089844 C 116.160156 235.761719 115.867188 235.40625 115.609375 235.019531 C 115.351562 234.632812 115.132812 234.226562 114.957031 233.796875 C 114.777344 233.371094 114.644531 232.929688 114.554688 232.472656 C 114.460938 232.019531 114.417969 231.558594 114.414062 231.09375 L 114.414062 143.984375 C 114.417969 143.523438 114.460938 143.0625 114.554688 142.605469 C 114.644531 142.152344 114.777344 141.710938 114.957031 141.28125 C 115.132812 140.851562 115.351562 140.445312 115.609375 140.058594 C 115.867188 139.675781 116.160156 139.316406 116.488281 138.988281 C 116.816406 138.660156 117.175781 138.367188 117.558594 138.109375 C 117.945312 137.851562 118.351562 137.632812 118.78125 137.457031 C 119.210938 137.277344 119.652344 137.144531 120.105469 137.054688 C 120.5625 136.960938 121.023438 136.917969 121.484375 136.914062 L 243.671875 136.914062 C 244.042969 136.914062 244.402344 136.96875 244.757812 137.078125 C 245.113281 137.183594 245.441406 137.34375 245.75 137.546875 C 246.058594 137.753906 246.328125 138 246.5625 138.285156 C 246.796875 138.570312 246.984375 138.886719 247.128906 139.226562 C 247.269531 139.570312 247.359375 139.921875 247.394531 140.292969 C 247.433594 140.660156 247.414062 141.023438 247.34375 141.386719 C 247.269531 141.75 247.148438 142.097656 246.972656 142.421875 C 246.800781 142.75 246.582031 143.042969 246.320312 143.304688 L 187.539062 202.085938 L 135.265625 149.8125 C 135.003906 149.558594 134.71875 149.332031 134.414062 149.136719 C 134.105469 148.9375 133.785156 148.769531 133.445312 148.636719 C 133.105469 148.5 132.753906 148.398438 132.398438 148.332031 C 132.039062 148.261719 131.675781 148.230469 131.3125 148.234375 C 130.945312 148.238281 130.582031 148.277344 130.226562 148.351562 C 129.867188 148.421875 129.519531 148.53125 129.183594 148.671875 C 128.847656 148.8125 128.527344 148.984375 128.222656 149.1875 C 127.921875 149.394531 127.640625 149.625 127.382812 149.882812 C 127.125 150.140625 126.894531 150.421875 126.6875 150.722656 C 126.484375 151.027344 126.3125 151.347656 126.171875 151.683594 C 126.03125 152.019531 125.921875 152.367188 125.851562 152.726562 C 125.777344 153.082031 125.738281 153.445312 125.734375 153.808594 C 125.730469 154.175781 125.761719 154.539062 125.832031 154.898438 C 125.898438 155.253906 126 155.605469 126.136719 155.945312 C 126.269531 156.285156 126.4375 156.605469 126.636719 156.914062 C 126.832031 157.21875 127.058594 157.503906 127.3125 157.765625 L 183.5625 214.015625 C 183.824219 214.277344 184.109375 214.511719 184.414062 214.714844 C 184.722656 214.921875 185.046875 215.09375 185.386719 215.234375 C 185.730469 215.378906 186.082031 215.484375 186.441406 215.554688 C 186.804688 215.628906 187.171875 215.664062 187.539062 215.664062 C 187.910156 215.664062 188.273438 215.628906 188.636719 215.554688 C 189 215.484375 189.351562 215.378906 189.691406 215.234375 C 190.035156 215.09375 190.359375 214.921875 190.664062 214.714844 C 190.972656 214.511719 191.257812 214.277344 191.515625 214.015625 L 254.273438 151.257812 C 254.796875 150.738281 255.277344 150.179688 255.714844 149.589844 C 256.15625 148.996094 256.550781 148.375 256.898438 147.726562 C 257.246094 147.074219 257.542969 146.402344 257.792969 145.707031 C 258.039062 145.015625 258.238281 144.304688 258.378906 143.582031 C 258.523438 142.859375 258.613281 142.128906 258.652344 141.390625 C 258.6875 140.65625 258.667969 139.921875 258.597656 139.1875 C 258.523438 138.453125 258.398438 137.730469 258.21875 137.011719 C 258.039062 136.296875 257.808594 135.601562 257.527344 134.917969 C 257.246094 134.238281 256.914062 133.582031 256.535156 132.949219 C 256.15625 132.316406 255.734375 131.714844 255.265625 131.144531 C 254.796875 130.574219 254.289062 130.042969 253.742188 129.546875 C 253.195312 129.050781 252.617188 128.597656 252.003906 128.191406 C 251.390625 127.78125 250.75 127.417969 250.082031 127.101562 C 249.417969 126.789062 248.730469 126.523438 248.023438 126.308594 C 247.320312 126.09375 246.601562 125.933594 245.871094 125.828125 C 245.144531 125.71875 244.410156 125.664062 243.671875 125.664062 L 121.484375 125.664062 C 120.886719 125.667969 120.289062 125.695312 119.691406 125.753906 C 119.09375 125.816406 118.5 125.902344 117.914062 126.019531 C 117.324219 126.136719 116.742188 126.285156 116.171875 126.460938 C 115.597656 126.632812 115.03125 126.835938 114.476562 127.066406 C 113.925781 127.296875 113.382812 127.550781 112.855469 127.835938 C 112.324219 128.117188 111.8125 128.425781 111.3125 128.761719 C 110.8125 129.09375 110.332031 129.449219 109.871094 129.832031 C 109.40625 130.210938 108.960938 130.613281 108.539062 131.039062 C 108.113281 131.460938 107.710938 131.90625 107.332031 132.371094 C 106.949219 132.832031 106.59375 133.3125 106.261719 133.8125 C 105.925781 134.3125 105.617188 134.824219 105.335938 135.355469 C 105.050781 135.882812 104.796875 136.425781 104.566406 136.976562 C 104.335938 137.53125 104.132812 138.097656 103.960938 138.671875 C 103.785156 139.242188 103.636719 139.824219 103.519531 140.414062 C 103.402344 141 103.316406 141.59375 103.253906 142.191406 C 103.195312 142.789062 103.167969 143.386719 103.164062 143.984375 L 103.164062 231.09375 C 103.167969 231.695312 103.195312 232.292969 103.253906 232.890625 C 103.316406 233.488281 103.402344 234.078125 103.519531 234.667969 C 103.636719 235.253906 103.785156 235.835938 103.960938 236.410156 C 104.132812 236.984375 104.335938 237.546875 104.566406 238.101562 C 104.796875 238.65625 105.050781 239.199219 105.335938 239.726562 C 105.617188 240.253906 105.925781 240.769531 106.261719 241.269531 C 106.59375 241.765625 106.949219 242.246094 107.332031 242.710938 C 107.710938 243.175781 108.113281 243.617188 108.539062 244.042969 C 108.960938 244.46875 109.40625 244.871094 109.871094 245.25 C 110.332031 245.628906 110.8125 245.988281 111.3125 246.320312 C 111.8125 246.652344 112.324219 246.960938 112.855469 247.246094 C 113.382812 247.527344 113.925781 247.785156 114.476562 248.015625 C 115.03125 248.246094 115.597656 248.445312 116.171875 248.621094 C 116.742188 248.796875 117.324219 248.941406 117.914062 249.058594 C 118.5 249.175781 119.09375 249.265625 119.691406 249.324219 C 120.289062 249.382812 120.886719 249.414062 121.484375 249.414062 L 253.59375 249.414062 C 254.195312 249.414062 254.792969 249.382812 255.390625 249.324219 C 255.988281 249.265625 256.578125 249.175781 257.167969 249.058594 C 257.753906 248.941406 258.335938 248.796875 258.910156 248.621094 C 259.484375 248.445312 260.046875 248.246094 260.601562 248.015625 C 261.15625 247.785156 261.699219 247.527344 262.226562 247.246094 C 262.753906 246.960938 263.269531 246.652344 263.769531 246.320312 C 264.265625 245.988281 264.746094 245.628906 265.210938 245.25 C 265.675781 244.871094 266.117188 244.46875 266.542969 244.042969 C 266.96875 243.617188 267.371094 243.175781 267.75 242.710938 C 268.128906 242.246094 268.488281 241.765625 268.820312 241.269531 C 269.152344 240.769531 269.460938 240.253906 269.746094 239.726562 C 270.027344 239.199219 270.285156 238.65625 270.515625 238.101562 C 270.746094 237.546875 270.945312 236.984375 271.121094 236.410156 C 271.296875 235.835938 271.441406 235.253906 271.558594 234.667969 C 271.675781 234.078125 271.765625 233.488281 271.824219 232.890625 C 271.882812 232.292969 271.914062 231.695312 271.914062 231.09375 L 271.914062 159.414062 C 271.914062 159.046875 271.878906 158.679688 271.808594 158.316406 C 271.734375 157.957031 271.628906 157.605469 271.488281 157.261719 C 271.347656 156.921875 271.171875 156.597656 270.96875 156.289062 C 270.761719 155.984375 270.527344 155.699219 270.269531 155.4375 C 270.007812 155.175781 269.722656 154.945312 269.414062 154.738281 C 269.109375 154.53125 268.785156 154.359375 268.441406 154.21875 C 268.101562 154.078125 267.75 153.96875 267.386719 153.898438 C 267.027344 153.828125 266.660156 153.789062 266.289062 153.789062 Z M 266.289062 153.789062 "/><g clip-rule="nonzero" clip-path="url(#15a694539a)"><path style=" stroke:none;fill-rule:nonzero;fill:#000000;fill-opacity:1;" d="M 187.539062 58.164062 C 185.421875 58.164062 183.308594 58.21875 181.191406 58.320312 C 179.078125 58.425781 176.964844 58.582031 174.859375 58.789062 C 172.753906 58.996094 170.652344 59.253906 168.558594 59.566406 C 166.460938 59.875 164.378906 60.238281 162.300781 60.652344 C 160.222656 61.0625 158.160156 61.527344 156.105469 62.042969 C 154.050781 62.558594 152.011719 63.121094 149.984375 63.734375 C 147.957031 64.351562 145.949219 65.015625 143.957031 65.726562 C 141.960938 66.441406 139.988281 67.203125 138.03125 68.011719 C 136.074219 68.824219 134.140625 69.679688 132.226562 70.585938 C 130.3125 71.492188 128.421875 72.445312 126.554688 73.441406 C 124.6875 74.441406 122.84375 75.484375 121.027344 76.570312 C 119.210938 77.660156 117.425781 78.792969 115.664062 79.96875 C 113.902344 81.144531 112.171875 82.363281 110.472656 83.625 C 108.769531 84.886719 107.101562 86.1875 105.464844 87.53125 C 103.828125 88.875 102.226562 90.257812 100.65625 91.679688 C 99.089844 93.101562 97.554688 94.5625 96.058594 96.058594 C 94.5625 97.554688 93.101562 99.089844 91.679688 100.65625 C 90.257812 102.226562 88.875 103.828125 87.53125 105.464844 C 86.1875 107.101562 84.886719 108.769531 83.625 110.472656 C 82.363281 112.171875 81.144531 113.902344 79.96875 115.664062 C 78.792969 117.425781 77.660156 119.210938 76.570312 121.027344 C 75.484375 122.84375 74.441406 124.6875 73.441406 126.554688 C 72.445312 128.421875 71.492188 130.3125 70.585938 132.226562 C 69.679688 134.140625 68.824219 136.074219 68.011719 138.03125 C 67.203125 139.988281 66.441406 141.960938 65.726562 143.957031 C 65.015625 145.949219 64.351562 147.957031 63.734375 149.984375 C 63.121094 152.011719 62.558594 154.050781 62.042969 156.105469 C 61.527344 158.160156 61.0625 160.222656 60.652344 162.300781 C 60.238281 164.378906 59.875 166.460938 59.566406 168.558594 C 59.253906 170.652344 58.996094 172.753906 58.789062 174.859375 C 58.582031 176.964844 58.425781 179.078125 58.320312 181.191406 C 58.21875 183.308594 58.164062 185.421875 58.164062 187.539062 C 58.164062 189.65625 58.21875 191.773438 58.320312 193.886719 C 58.425781 196.003906 58.582031 198.113281 58.789062 200.222656 C 58.996094 202.328125 59.253906 204.429688 59.566406 206.523438 C 59.875 208.617188 60.238281 210.703125 60.652344 212.78125 C 61.0625 214.855469 61.527344 216.921875 62.042969 218.976562 C 62.558594 221.03125 63.121094 223.070312 63.734375 225.097656 C 64.351562 227.121094 65.015625 229.132812 65.726562 231.125 C 66.441406 233.117188 67.203125 235.09375 68.011719 237.050781 C 68.824219 239.007812 69.679688 240.941406 70.585938 242.855469 C 71.492188 244.769531 72.445312 246.660156 73.441406 248.527344 C 74.441406 250.394531 75.484375 252.234375 76.570312 254.050781 C 77.660156 255.867188 78.792969 257.65625 79.96875 259.417969 C 81.144531 261.175781 82.363281 262.910156 83.625 264.609375 C 84.886719 266.308594 86.1875 267.976562 87.53125 269.613281 C 88.875 271.25 90.257812 272.855469 91.679688 274.421875 C 93.101562 275.992188 94.5625 277.523438 96.058594 279.023438 C 97.554688 280.519531 99.089844 281.980469 100.65625 283.402344 C 102.226562 284.824219 103.828125 286.207031 105.464844 287.546875 C 107.101562 288.890625 108.769531 290.195312 110.472656 291.457031 C 112.171875 292.714844 113.902344 293.933594 115.664062 295.113281 C 117.425781 296.289062 119.210938 297.421875 121.027344 298.507812 C 122.84375 299.597656 124.6875 300.640625 126.554688 301.640625 C 128.421875 302.636719 130.3125 303.589844 132.226562 304.492188 C 134.140625 305.398438 136.074219 306.257812 138.03125 307.066406 C 139.988281 307.878906 141.960938 308.640625 143.957031 309.351562 C 145.949219 310.066406 147.957031 310.730469 149.984375 311.34375 C 152.011719 311.960938 154.050781 312.523438 156.105469 313.039062 C 158.160156 313.550781 160.222656 314.015625 162.300781 314.429688 C 164.378906 314.84375 166.460938 315.203125 168.558594 315.515625 C 170.652344 315.824219 172.753906 316.085938 174.859375 316.292969 C 176.964844 316.5 179.078125 316.65625 181.191406 316.757812 C 183.308594 316.863281 185.421875 316.914062 187.539062 316.914062 C 189.65625 316.914062 191.773438 316.863281 193.886719 316.757812 C 196.003906 316.65625 198.113281 316.5 200.222656 316.292969 C 202.328125 316.085938 204.429688 315.824219 206.523438 315.515625 C 208.617188 315.203125 210.703125 314.84375 212.78125 314.429688 C 214.855469 314.015625 216.921875 313.550781 218.976562 313.039062 C 221.03125 312.523438 223.070312 311.960938 225.097656 311.34375 C 227.121094 310.730469 229.132812 310.066406 231.125 309.351562 C 233.117188 308.640625 235.09375 307.878906 237.050781 307.066406 C 239.007812 306.257812 240.941406 305.398438 242.855469 304.492188 C 244.769531 303.589844 246.660156 302.636719 248.527344 301.640625 C 250.394531 300.640625 252.234375 299.597656 254.050781 298.507812 C 255.867188 297.421875 257.65625 296.289062 259.417969 295.113281 C 261.175781 293.933594 262.910156 292.714844 264.609375 291.457031 C 266.308594 290.195312 267.976562 288.890625 269.613281 287.546875 C 271.25 286.207031 272.855469 284.824219 274.421875 283.402344 C 275.992188 281.980469 277.523438 280.519531 279.023438 279.023438 C 280.519531 277.523438 281.980469 275.992188 283.402344 274.421875 C 284.824219 272.855469 286.207031 271.25 287.546875 269.613281 C 288.890625 267.976562 290.195312 266.308594 291.457031 264.609375 C 292.714844 262.910156 293.933594 261.175781 295.113281 259.417969 C 296.289062 257.65625 297.421875 255.867188 298.507812 254.050781 C 299.597656 252.234375 300.640625 250.394531 301.640625 248.527344 C 302.636719 246.660156 303.589844 244.769531 304.492188 242.855469 C 305.398438 240.941406 306.257812 239.007812 307.066406 237.050781 C 307.878906 235.09375 308.640625 233.117188 309.351562 231.125 C 310.066406 229.132812 310.730469 227.121094 311.34375 225.097656 C 311.960938 223.070312 312.523438 221.03125 313.039062 218.976562 C 313.550781 216.921875 314.015625 214.855469 314.429688 212.78125 C 314.84375 210.703125 315.203125 208.617188 315.515625 206.523438 C 315.824219 204.429688 316.085938 202.328125 316.292969 200.222656 C 316.5 198.113281 316.65625 196.003906 316.757812 193.886719 C 316.863281 191.773438 316.914062 189.65625 316.914062 187.539062 C 316.914062 185.421875 316.859375 183.308594 316.753906 181.195312 C 316.644531 179.082031 316.488281 176.96875 316.277344 174.863281 C 316.070312 172.757812 315.808594 170.65625 315.496094 168.5625 C 315.183594 166.472656 314.820312 164.386719 314.40625 162.3125 C 313.992188 160.234375 313.523438 158.171875 313.007812 156.117188 C 312.492188 154.066406 311.925781 152.027344 311.3125 150 C 310.695312 147.976562 310.03125 145.96875 309.316406 143.976562 C 308.601562 141.980469 307.839844 140.007812 307.027344 138.054688 C 306.21875 136.097656 305.359375 134.164062 304.453125 132.25 C 303.546875 130.339844 302.59375 128.449219 301.597656 126.582031 C 300.597656 124.714844 299.554688 122.875 298.464844 121.058594 C 297.375 119.246094 296.242188 117.457031 295.066406 115.699219 C 293.890625 113.9375 292.671875 112.207031 291.410156 110.507812 C 290.148438 108.808594 288.847656 107.140625 287.503906 105.503906 C 286.160156 103.867188 284.777344 102.265625 283.355469 100.699219 C 281.933594 99.128906 280.476562 97.597656 278.980469 96.101562 C 277.484375 94.605469 275.949219 93.144531 274.382812 91.722656 C 272.8125 90.300781 271.210938 88.917969 269.574219 87.578125 C 267.941406 86.234375 266.273438 84.929688 264.570312 83.671875 C 262.871094 82.410156 261.140625 81.191406 259.382812 80.015625 C 257.621094 78.835938 255.835938 77.703125 254.019531 76.617188 C 252.207031 75.527344 250.363281 74.484375 248.5 73.484375 C 246.632812 72.484375 244.742188 71.535156 242.828125 70.628906 C 240.917969 69.722656 238.980469 68.863281 237.027344 68.050781 C 235.070312 67.242188 233.097656 66.480469 231.105469 65.765625 C 229.113281 65.050781 227.105469 64.386719 225.078125 63.769531 C 223.054688 63.152344 221.015625 62.585938 218.960938 62.070312 C 216.910156 61.554688 214.84375 61.089844 212.769531 60.675781 C 210.695312 60.261719 208.609375 59.898438 206.515625 59.585938 C 204.421875 59.273438 202.324219 59.011719 200.214844 58.800781 C 198.109375 58.59375 196 58.433594 193.886719 58.328125 C 191.773438 58.222656 189.65625 58.167969 187.539062 58.164062 Z M 187.539062 305.664062 C 185.605469 305.664062 183.675781 305.617188 181.746094 305.523438 C 179.8125 305.429688 177.886719 305.285156 175.960938 305.097656 C 174.039062 304.90625 172.121094 304.671875 170.207031 304.386719 C 168.296875 304.101562 166.390625 303.773438 164.496094 303.394531 C 162.597656 303.019531 160.714844 302.59375 158.839844 302.125 C 156.964844 301.65625 155.101562 301.140625 153.25 300.578125 C 151.402344 300.019531 149.566406 299.410156 147.746094 298.761719 C 145.925781 298.109375 144.121094 297.414062 142.335938 296.671875 C 140.550781 295.933594 138.78125 295.152344 137.035156 294.324219 C 135.289062 293.496094 133.5625 292.628906 131.855469 291.71875 C 130.152344 290.804688 128.46875 289.851562 126.8125 288.859375 C 125.152344 287.867188 123.519531 286.832031 121.914062 285.757812 C 120.304688 284.683594 118.726562 283.570312 117.171875 282.417969 C 115.621094 281.265625 114.097656 280.078125 112.601562 278.851562 C 111.109375 277.625 109.644531 276.363281 108.210938 275.066406 C 106.78125 273.765625 105.378906 272.433594 104.011719 271.066406 C 102.644531 269.699219 101.3125 268.300781 100.015625 266.867188 C 98.71875 265.4375 97.453125 263.972656 96.226562 262.476562 C 95.003906 260.984375 93.8125 259.460938 92.660156 257.90625 C 91.511719 256.355469 90.398438 254.773438 89.324219 253.167969 C 88.25 251.558594 87.214844 249.925781 86.222656 248.269531 C 85.226562 246.609375 84.273438 244.929688 83.363281 243.222656 C 82.453125 241.519531 81.582031 239.792969 80.757812 238.046875 C 79.929688 236.296875 79.148438 234.53125 78.40625 232.746094 C 77.667969 230.957031 76.972656 229.15625 76.320312 227.335938 C 75.667969 225.515625 75.0625 223.679688 74.5 221.832031 C 73.941406 219.980469 73.425781 218.117188 72.957031 216.242188 C 72.484375 214.367188 72.0625 212.480469 71.683594 210.585938 C 71.308594 208.6875 70.976562 206.785156 70.695312 204.871094 C 70.410156 202.960938 70.171875 201.042969 69.984375 199.117188 C 69.792969 197.195312 69.652344 195.265625 69.558594 193.335938 C 69.460938 191.40625 69.414062 189.472656 69.414062 187.539062 C 69.414062 185.605469 69.460938 183.675781 69.558594 181.746094 C 69.652344 179.8125 69.792969 177.886719 69.984375 175.960938 C 70.171875 174.039062 70.410156 172.121094 70.695312 170.207031 C 70.976562 168.296875 71.308594 166.390625 71.683594 164.496094 C 72.0625 162.597656 72.484375 160.714844 72.957031 158.839844 C 73.425781 156.964844 73.941406 155.101562 74.5 153.25 C 75.0625 151.402344 75.667969 149.566406 76.320312 147.746094 C 76.972656 145.925781 77.667969 144.121094 78.40625 142.335938 C 79.148438 140.550781 79.929688 138.78125 80.757812 137.035156 C 81.582031 135.289062 82.453125 133.5625 83.363281 131.855469 C 84.273438 130.152344 85.226562 128.46875 86.222656 126.8125 C 87.214844 125.152344 88.25 123.519531 89.324219 121.914062 C 90.398438 120.304688 91.511719 118.726562 92.660156 117.171875 C 93.8125 115.621094 95.003906 114.097656 96.226562 112.601562 C 97.453125 111.109375 98.71875 109.644531 100.015625 108.210938 C 101.3125 106.78125 102.644531 105.378906 104.011719 104.011719 C 105.378906 102.644531 106.78125 101.3125 108.210938 100.015625 C 109.644531 98.71875 111.109375 97.453125 112.601562 96.226562 C 114.097656 95.003906 115.621094 93.8125 117.171875 92.660156 C 118.726562 91.511719 120.304688 90.398438 121.914062 89.324219 C 123.519531 88.25 125.152344 87.214844 126.8125 86.222656 C 128.46875 85.226562 130.152344 84.273438 131.855469 83.363281 C 133.5625 82.453125 135.289062 81.582031 137.035156 80.757812 C 138.78125 79.929688 140.550781 79.148438 142.335938 78.40625 C 144.121094 77.667969 145.925781 76.972656 147.746094 76.320312 C 149.566406 75.667969 151.402344 75.0625 153.25 74.5 C 155.101562 73.941406 156.964844 73.425781 158.839844 72.957031 C 160.714844 72.484375 162.597656 72.0625 164.496094 71.683594 C 166.390625 71.308594 168.296875 70.976562 170.207031 70.695312 C 172.121094 70.410156 174.039062 70.171875 175.960938 69.984375 C 177.886719 69.792969 179.8125 69.652344 181.746094 69.558594 C 183.675781 69.460938 185.605469 69.414062 187.539062 69.414062 C 189.472656 69.414062 191.40625 69.460938 193.335938 69.558594 C 195.265625 69.652344 197.195312 69.792969 199.117188 69.984375 C 201.042969 70.171875 202.960938 70.410156 204.871094 70.695312 C 206.785156 70.976562 208.6875 71.308594 210.585938 71.683594 C 212.480469 72.0625 214.367188 72.484375 216.242188 72.957031 C 218.117188 73.425781 219.980469 73.941406 221.832031 74.5 C 223.679688 75.0625 225.515625 75.667969 227.335938 76.320312 C 229.15625 76.972656 230.957031 77.667969 232.746094 78.40625 C 234.53125 79.148438 236.296875 79.929688 238.046875 80.757812 C 239.792969 81.582031 241.519531 82.453125 243.222656 83.363281 C 244.929688 84.273438 246.609375 85.226562 248.269531 86.222656 C 249.925781 87.214844 251.558594 88.25 253.167969 89.324219 C 254.773438 90.398438 256.355469 91.511719 257.90625 92.660156 C 259.460938 93.8125 260.984375 95.003906 262.476562 96.226562 C 263.972656 97.453125 265.4375 98.71875 266.867188 100.015625 C 268.300781 101.3125 269.699219 102.644531 271.066406 104.011719 C 272.433594 105.378906 273.765625 106.78125 275.066406 108.210938 C 276.363281 109.644531 277.625 111.109375 278.851562 112.601562 C 280.078125 114.097656 281.265625 115.621094 282.417969 117.171875 C 283.570312 118.726562 284.683594 120.304688 285.757812 121.914062 C 286.832031 123.519531 287.867188 125.152344 288.859375 126.8125 C 289.851562 128.46875 290.804688 130.152344 291.71875 131.855469 C 292.628906 133.5625 293.496094 135.289062 294.324219 137.035156 C 295.152344 138.78125 295.933594 140.550781 296.671875 142.335938 C 297.414062 144.121094 298.109375 145.925781 298.761719 147.746094 C 299.410156 149.566406 300.019531 151.402344 300.578125 153.25 C 301.140625 155.101562 301.65625 156.964844 302.125 158.839844 C 302.59375 160.714844 303.019531 162.597656 303.394531 164.496094 C 303.773438 166.390625 304.101562 168.296875 304.386719 170.207031 C 304.671875 172.121094 304.90625 174.039062 305.097656 175.960938 C 305.285156 177.886719 305.429688 179.8125 305.523438 181.746094 C 305.617188 183.675781 305.664062 185.605469 305.664062 187.539062 C 305.664062 189.472656 305.613281 191.40625 305.515625 193.335938 C 305.421875 195.265625 305.277344 197.191406 305.085938 199.113281 C 304.894531 201.039062 304.65625 202.953125 304.371094 204.867188 C 304.085938 206.777344 303.753906 208.679688 303.375 210.578125 C 302.996094 212.472656 302.570312 214.355469 302.101562 216.230469 C 301.628906 218.105469 301.113281 219.964844 300.550781 221.816406 C 299.988281 223.664062 299.378906 225.5 298.726562 227.316406 C 298.074219 229.136719 297.378906 230.941406 296.640625 232.726562 C 295.898438 234.511719 295.113281 236.277344 294.289062 238.023438 C 293.460938 239.769531 292.589844 241.496094 291.679688 243.199219 C 290.765625 244.902344 289.816406 246.582031 288.820312 248.242188 C 287.828125 249.898438 286.792969 251.53125 285.71875 253.136719 C 284.644531 254.742188 283.53125 256.324219 282.378906 257.875 C 281.226562 259.425781 280.039062 260.949219 278.8125 262.441406 C 277.585938 263.9375 276.324219 265.398438 275.027344 266.832031 C 273.726562 268.261719 272.394531 269.664062 271.03125 271.03125 C 269.664062 272.394531 268.261719 273.726562 266.832031 275.027344 C 265.398438 276.324219 263.9375 277.585938 262.441406 278.8125 C 260.949219 280.039062 259.425781 281.226562 257.875 282.378906 C 256.324219 283.53125 254.742188 284.644531 253.136719 285.71875 C 251.53125 286.792969 249.898438 287.828125 248.242188 288.820312 C 246.582031 289.816406 244.902344 290.765625 243.199219 291.679688 C 241.496094 292.589844 239.769531 293.460938 238.023438 294.289062 C 236.277344 295.113281 234.511719 295.898438 232.726562 296.640625 C 230.941406 297.378906 229.136719 298.074219 227.316406 298.726562 C 225.5 299.378906 223.664062 299.988281 221.816406 300.550781 C 219.964844 301.113281 218.105469 301.628906 216.230469 302.101562 C 214.355469 302.570312 212.472656 302.996094 210.578125 303.375 C 208.679688 303.753906 206.777344 304.085938 204.867188 304.371094 C 202.953125 304.65625 201.039062 304.894531 199.113281 305.085938 C 197.191406 305.277344 195.265625 305.421875 193.335938 305.515625 C 191.40625 305.613281 189.472656 305.664062 187.539062 305.664062 Z M 187.539062 305.664062 "/></g></g></svg>