<?xml version="1.0" encoding="utf-8"?>
<!-- Generator: Adobe Illustrator 28.0.0, SVG Export Plug-In . SVG Version: 6.00 Build 0)  -->
<svg version="1.1" id="レイヤー_1" xmlns="http://www.w3.org/2000/svg" xmlns:xlink="http://www.w3.org/1999/xlink" x="0px"
	 y="0px" viewBox="0 0 24 24" style="enable-background:new 0 0 24 24;" xml:space="preserve">
<style type="text/css">
	.st0{fill:#FFFFFF;}
</style>
<g>
	<path class="st0" d="M16.4,1.8C15,1.3,13.6,1,12.1,1.1V0.4c1.5,0,3.1,0.4,4.5,1C18,2,19.2,2.9,20.3,3.9c1,1.1,1.9,2.4,2.4,3.8
		c0.5,1.4,0.8,2.9,0.8,4.4c0-1.5-0.4-3-0.9-4.3C22,6.4,21.1,5.2,20,4.2C19,3.2,17.7,2.4,16.4,1.8z"/>
	<path class="st0" d="M1.3,9.2c0.4-1.4,1-2.8,1.9-4C4,4,5.1,3,6.4,2.3C5.1,3,4,4,3,5.1C2.1,6.3,1.4,7.7,1,9.1
		c-0.4,1.5-0.5,3-0.4,4.5c0.2,1.5,0.6,3,1.4,4.3l0.6-0.3c-0.7-1.2-1.3-2.6-1.5-4.1C0.9,12.1,0.9,10.6,1.3,9.2z"/>
	<path class="st0" d="M18.9,20.9c-1.1,0.9-2.5,1.6-3.9,2c-1.4,0.4-2.9,0.5-4.4,0.4c-1.5-0.2-2.9-0.6-4.2-1.3
		c1.3,0.8,2.7,1.3,4.2,1.5c1.5,0.2,3,0.2,4.5-0.2c1.5-0.4,2.9-1,4.1-1.9c1.2-0.9,2.3-2.1,3.1-3.4l-0.6-0.3C21,18.9,20,20,18.9,20.9z
		"/>
</g>
</svg>
