<?xml version="1.0" encoding="utf-8"?>
<!-- Generator: Adobe Illustrator 28.0.0, SVG Export Plug-In . SVG Version: 6.00 Build 0)  -->
<svg version="1.1" id="レイヤー_1" xmlns="http://www.w3.org/2000/svg" xmlns:xlink="http://www.w3.org/1999/xlink" x="0px"
	 y="0px" viewBox="0 0 512 512" style="enable-background:new 0 0 512 512;" xml:space="preserve">
<style type="text/css">
	.st0{display:none;}
	.st1{display:inline;fill:#FFFFFF;}
	.st2{fill:#FFFFFF;}
	
		.st3{display:inline;fill:none;stroke:#000000;stroke-width:21.3333;stroke-linecap:round;stroke-linejoin:round;stroke-miterlimit:53.3333;}
	.st4{display:inline;}
	.st5{fill:#D3DFF9;}
	.st6{display:inline;fill:#4E82E8;}
</style>
<g id="Background" class="st0">
	<path class="st1" d="M0,0h512v512H0V0z"/>
</g>
<g id="Outline_Expand">
	<path class="st2" d="M490.7,85.3H21.3c-5.9,0-10.7,4.8-10.7,10.7v314.7c0,5.9,4.8,10.7,10.7,10.7h469.3c5.9,0,10.7-4.8,10.7-10.7
		V96C501.3,90.1,496.6,85.3,490.7,85.3z M461.4,106.7L297.2,244.8c-23.9,20.1-58.5,20.1-82.4,0L50.6,106.7L461.4,106.7z M480,389
		L337.2,279.5c-4.7-3.6-11.4-2.7-15,2c-3.6,4.7-2.7,11.4,2,15l135,103.5H52.8l135-103.5c4.7-3.6,5.6-10.3,2-15
		c-3.6-4.7-10.3-5.6-15-2L32,389V118.9l169.1,142.2c31.4,26.4,78.4,26.4,109.8,0L480,118.9L480,389z"/>
</g>
<g id="Primary" class="st0">
	<path class="st3" d="M21.3,96h469.3v314.7H21.3V96z"/>
	<path class="st3" d="M21.3,96l186.6,156.9c27.8,23.4,68.3,23.4,96.1,0L490.7,96"/>
	<path class="st3" d="M21.3,410.7l160-122.7"/>
	<path class="st3" d="M490.7,410.7L330.7,288"/>
</g>
<g id="Glyph" class="st0">
	<path class="st4" d="M174.8,279.5c4.7-3.6,11.4-2.7,15,2c3.6,4.7,2.7,11.4-2,15L24.9,421.3H487L324.2,296.5c-4.7-3.6-5.6-10.3-2-15
		c3.6-4.7,10.3-5.6,15-2l164.2,125.9V96c0-5.9-4.8-10.7-10.7-10.7H21.3c-5.9,0-10.7,4.8-10.7,10.7v309.4L174.8,279.5z M38.5,110.5
		c3.8-4.5,10.5-5.1,15-1.3l161.2,135.6c23.9,20.1,58.5,20.1,82.4,0l161.2-135.5c4.5-3.8,11.2-3.2,15,1.3c3.8,4.5,3.2,11.2-1.3,15
		L310.9,261.1c-31.4,26.4-78.4,26.4-109.8,0L39.8,125.5C35.3,121.7,34.8,115,38.5,110.5L38.5,110.5z"/>
</g>
<g id="Filled_Outline" class="st0">
	<g class="st4">
		<g>
			<path class="st5" d="M432.4,106.7L285.2,230.5c-16.9,14.2-41.4,14.2-58.3,0L79.6,106.7H432.4z"/>
			<path class="st5" d="M427,400H85l137.8-105.7c10.7,3.7,22,5.5,33.2,5.5c11.3,0,22.6-1.8,33.4-5.5L427,400z"/>
		</g>
		<g>
			<path class="st5" d="M217.9,259.9l-9.1,6.9l-19,14.6L35.3,400l-12.2,9.3l-1.8,1.4V96l186.6,156.9
				C211.1,255.6,214.5,257.9,217.9,259.9L217.9,259.9z"/>
			<path class="st5" d="M490.7,96v314.7L322.2,281.5l-19.1-14.6l-7.8-6l-2.8-0.1c4-2.2,7.9-4.9,11.5-7.9L490.7,96z"/>
		</g>
		<circle class="st5" cx="256" cy="176" r="69.3"/>
	</g>
	<path class="st6" d="M490.7,85.3H21.3c-5.9,0-10.7,4.8-10.7,10.7v314.7c0,5.9,4.8,10.7,10.7,10.7h469.3c5.9,0,10.7-4.8,10.7-10.7
		V96C501.3,90.1,496.5,85.3,490.7,85.3z M461.4,106.7L297.2,244.7c-23.8,20.1-58.5,20.1-82.3,0L50.6,106.7H461.4z M480,389.1
		L337.2,279.5c-4.7-3.6-11.4-2.7-15,2c-3.6,4.7-2.7,11.4,2,15l135,103.5H52.8l135-103.5c4.6-3.6,5.5-10.3,2-15
		c-3.6-4.6-10.3-5.5-15-2L32,389V118.9l169.1,142.2c2.5,2.1,5.1,4.1,7.8,5.8c14.3,9.5,30.7,14.3,47.1,14.3s32.8-4.7,47.1-14.3
		c2.7-1.8,5.3-3.7,7.8-5.8L480,118.9V389.1z"/>
</g>
<g id="Sampel_u_x2F__Interface" class="st0">
	<path class="st3" d="M21.3,96h469.3v314.7H21.3V96z"/>
	<path class="st3" d="M21.3,96l186.6,156.9c27.8,23.4,68.3,23.4,96.1,0L490.7,96"/>
	<path class="st3" d="M21.3,410.7l160-122.7"/>
	<path class="st3" d="M490.7,410.7L330.7,288"/>
</g>
</svg>
