<svg xmlns="http://www.w3.org/2000/svg" xmlns:xlink="http://www.w3.org/1999/xlink" width="500" zoomAndPan="magnify" viewBox="0 0 375 374.999991" height="500" preserveAspectRatio="xMidYMid meet" version="1.0"><defs><clipPath id="1b4f5dc4b3"><path d="M 70.722656 75.539062 L 262 75.539062 L 262 268 L 70.722656 268 Z M 70.722656 75.539062 " clip-rule="nonzero"/></clipPath><clipPath id="cbdfedd35a"><path d="M 111 108 L 303.972656 108 L 303.972656 299.789062 L 111 299.789062 Z M 111 108 " clip-rule="nonzero"/></clipPath></defs><rect x="-37.5" width="450" fill="#ffffff" y="-37.499999" height="449.999989" fill-opacity="1"/><rect x="-37.5" width="450" fill="#ffffff" y="-37.499999" height="449.999989" fill-opacity="1"/><g clip-path="url(#1b4f5dc4b3)"><path fill="#100f0d" d="M 203.382812 261.214844 L 96.554688 261.214844 C 85.554688 261.214844 76.605469 252.246094 76.605469 241.214844 L 76.605469 101.40625 C 76.605469 90.375 85.554688 81.402344 96.554688 81.402344 L 235.976562 81.402344 C 246.972656 81.402344 255.921875 90.375 255.921875 101.40625 L 255.921875 186.578125 C 255.921875 188.191406 257.230469 189.503906 258.839844 189.503906 C 260.453125 189.503906 261.761719 188.191406 261.761719 186.578125 L 261.761719 101.40625 C 261.761719 87.148438 250.195312 75.546875 235.976562 75.546875 L 96.554688 75.546875 C 82.335938 75.546875 70.765625 87.148438 70.765625 101.40625 L 70.765625 241.214844 C 70.765625 255.472656 82.335938 267.074219 96.554688 267.074219 L 203.382812 267.074219 C 204.992188 267.074219 206.300781 265.761719 206.300781 264.144531 C 206.300781 262.53125 204.992188 261.214844 203.382812 261.214844 " fill-opacity="1" fill-rule="nonzero"/></g><g clip-path="url(#cbdfedd35a)"><path fill="#100f0d" d="M 266.019531 243.726562 C 265.230469 244.078125 264.636719 244.761719 264.398438 245.59375 C 264.15625 246.425781 264.296875 247.320312 264.78125 248.039062 L 289.378906 284.703125 L 277.398438 292.789062 L 252.796875 256.121094 C 252.316406 255.40625 251.542969 254.9375 250.683594 254.84375 C 250.582031 254.835938 250.476562 254.824219 250.375 254.824219 C 249.625 254.824219 248.898438 255.121094 248.351562 255.648438 L 225.914062 277.351562 L 213.078125 183.941406 L 294.519531 231.066406 Z M 207.46875 166.902344 L 191.253906 166.902344 L 193.824219 152.578125 L 210.980469 152.578125 Z M 203.058594 184.914062 L 188.023438 184.914062 L 190.203125 172.757812 L 206.035156 172.757812 Z M 185.324219 166.902344 L 170 166.902344 L 170 152.578125 L 187.894531 152.578125 Z M 182.09375 184.914062 L 170 184.914062 L 170 172.757812 L 184.273438 172.757812 Z M 164.164062 146.722656 L 146.242188 146.722656 L 143.8125 133.183594 L 164.164062 133.183594 Z M 164.164062 166.902344 L 149.859375 166.902344 L 147.289062 152.578125 L 164.164062 152.578125 Z M 164.164062 184.914062 L 153.089844 184.914062 L 150.910156 172.757812 L 164.164062 172.757812 Z M 133.050781 184.914062 L 129.546875 172.757812 L 144.980469 172.757812 L 147.160156 184.914062 Z M 127.855469 166.902344 L 123.730469 152.578125 L 141.359375 152.578125 L 143.929688 166.902344 Z M 118.140625 133.183594 L 137.882812 133.183594 L 140.308594 146.722656 L 122.042969 146.722656 Z M 170 133.183594 L 191.371094 133.183594 L 188.941406 146.722656 L 170 146.722656 Z M 197.300781 133.183594 L 215.734375 133.183594 L 212.417969 146.722656 L 194.875 146.722656 Z M 194.371094 231.875 C 191.773438 231.875 189.667969 229.761719 189.667969 227.160156 C 189.667969 224.558594 191.773438 222.441406 194.371094 222.441406 C 196.964844 222.441406 199.074219 224.558594 199.074219 227.160156 C 199.074219 229.761719 196.964844 231.875 194.371094 231.875 Z M 135.464844 231.875 C 132.871094 231.875 130.757812 229.761719 130.757812 227.160156 C 130.757812 224.558594 132.871094 222.441406 135.464844 222.441406 C 138.058594 222.441406 140.167969 224.558594 140.167969 227.160156 C 140.167969 229.761719 138.058594 231.875 135.464844 231.875 Z M 302.414062 228.871094 L 211.226562 176.113281 L 225.308594 118.640625 C 225.988281 115.878906 228.441406 113.949219 231.277344 113.949219 L 241.875 113.949219 C 243.488281 113.949219 244.796875 112.640625 244.796875 111.023438 C 244.796875 109.40625 243.488281 108.097656 241.875 108.097656 L 231.277344 108.097656 C 225.746094 108.097656 220.960938 111.859375 219.640625 117.246094 L 217.167969 127.328125 L 114.257812 127.328125 C 113.339844 127.328125 112.476562 127.761719 111.925781 128.496094 C 111.375 129.230469 111.199219 130.183594 111.453125 131.070312 L 128.050781 188.65625 C 128.410156 189.90625 129.554688 190.769531 130.855469 190.769531 L 201.621094 190.769531 L 195.324219 216.464844 L 136.386719 216.464844 C 136.097656 216.464844 135.816406 216.507812 135.546875 216.589844 C 135.519531 216.589844 135.492188 216.585938 135.464844 216.585938 C 129.652344 216.585938 124.921875 221.328125 124.921875 227.160156 C 124.921875 232.988281 129.652344 237.730469 135.464844 237.730469 C 141.277344 237.730469 146.003906 232.988281 146.003906 227.160156 C 146.003906 225.414062 145.582031 223.773438 144.832031 222.320312 L 185 222.320312 C 184.253906 223.773438 183.828125 225.414062 183.828125 227.160156 C 183.828125 232.988281 188.558594 237.730469 194.371094 237.730469 C 200.179688 237.730469 204.910156 232.988281 204.910156 227.160156 C 204.910156 223.742188 203.285156 220.703125 200.773438 218.769531 L 207.949219 189.496094 L 220.914062 283.855469 C 221.0625 284.945312 221.8125 285.859375 222.847656 286.21875 C 223.886719 286.574219 225.039062 286.328125 225.832031 285.5625 L 249.898438 262.285156 L 274.179688 298.484375 C 274.746094 299.324219 275.667969 299.777344 276.605469 299.777344 C 277.167969 299.777344 277.734375 299.617188 278.234375 299.277344 L 295.058594 287.929688 C 295.703125 287.496094 296.144531 286.824219 296.292969 286.0625 C 296.441406 285.300781 296.285156 284.511719 295.851562 283.867188 L 271.566406 247.667969 L 302.136719 234.082031 C 303.140625 233.636719 303.8125 232.660156 303.871094 231.5625 C 303.925781 230.460938 303.363281 229.421875 302.414062 228.871094 " fill-opacity="1" fill-rule="nonzero"/></g></svg>