<svg id="Glyph" viewBox="0 0 64 64" xmlns="http://www.w3.org/2000/svg"><path d="m24.38 17.56-3.14 3.12-10.99-10.91 3.14-3.12c.87-.86 2.27-.86 3.14 0l7.85 7.8c.87.86.87 2.26 0 3.12z"/><path d="m57.35 50.3-3.14 3.12-10.99-10.91 3.14-3.12c.87-.86 2.27-.86 3.14 0l7.85 7.8c.87.86.87 2.26 0 3.12z"/><path d="m41.8 43.91-2.09 2.08c-.71.71-1.82.86-2.69.35-3.42-2-7.67-4.97-11.86-9.29-3.49-3.61-6-7.2-7.79-10.21-.51-.87-.37-1.96.35-2.67l2.09-2.08-10.52-10.44-1.43 2.84c-2.69 5.34-2.47 11.65.56 16.8 2.34 3.99 5.48 8.41 9.67 12.78 4.81 5.01 9.8 8.69 14.27 11.38 5.65 3.39 12.71 3.42 18.37.05l1.7-1.01-10.64-10.56z"/></svg>