<?xml version="1.0" encoding="utf-8"?>
<!-- Generator: Adobe Illustrator 28.0.0, SVG Export Plug-In . SVG Version: 6.00 Build 0)  -->
<svg version="1.1" id="Glyph" xmlns="http://www.w3.org/2000/svg" xmlns:xlink="http://www.w3.org/1999/xlink" x="0px" y="0px"
	 viewBox="0 0 64 64" style="enable-background:new 0 0 64 64;" xml:space="preserve">
<style type="text/css">
	.st0{fill:#FFFFFF;}
</style>
<path class="st0" d="M24.4,17.6l-3.1,3.1l-11-10.9l3.1-3.1c0.9-0.9,2.3-0.9,3.1,0l7.9,7.8C25.3,15.3,25.3,16.7,24.4,17.6L24.4,17.6z
	"/>
<path class="st0" d="M57.3,50.3l-3.1,3.1l-11-10.9l3.1-3.1c0.9-0.9,2.3-0.9,3.1,0l7.8,7.8C58.2,48,58.2,49.4,57.3,50.3L57.3,50.3z"
	/>
<path class="st0" d="M41.8,43.9L39.7,46c-0.7,0.7-1.8,0.9-2.7,0.3c-3.4-2-7.7-5-11.9-9.3c-3.5-3.6-6-7.2-7.8-10.2
	c-0.5-0.9-0.4-2,0.4-2.7l2.1-2.1L9.3,11.6l-1.4,2.8c-2.7,5.3-2.5,11.6,0.6,16.8c2.3,4,5.5,8.4,9.7,12.8c4.8,5,9.8,8.7,14.3,11.4
	c5.7,3.4,12.7,3.4,18.4,0l1.7-1L41.8,43.9L41.8,43.9z"/>
</svg>
