<svg fill="none" height="24" viewBox="0 0 24 24" width="24" xmlns="http://www.w3.org/2000/svg"><g clip-rule="evenodd" fill="rgb(0,0,0)" fill-rule="evenodd"><path d="m16.1487 9.04896c.2932.29259.2937.76747.0011 1.06064l-4.83 4.84c-.1408.1411-.332.2203-.5313.2202s-.3904-.0795-.531-.2207l-2.41002-2.42c-.29228-.2935-.2913-.7684.0022-1.0607s.76837-.2913 1.06066.0022l1.87916 1.8869 4.2985-4.30744c.2926-.2932.7675-.29369 1.0607-.0011z"/><path d="m11.224 3.03188-1.58492 1.35417c-.23459.1955-.53228.34781-.81357.45136-.28092.10342-.61139.18243-.9266.18243h-1.73c-.64579 0-1.18.53421-1.18 1.18 0 .41421-.33579.75-.75.75s-.75-.33579-.75-.75c0-1.47421 1.20579-2.68 2.68-2.68h1.73c.08479 0 .23432-.02599.4084-.09007.17135-.06308.30246-.13949.36877-.19387l1.57942-1.34954c.9744-.82123 2.5164-.83115 3.4826.00494l1.5736 1.34459c.0644.0527.1962.12919.3713.19297.1775.06463.3303.09098.4159.09098h1.7c1.4742 0 2.68 1.20579 2.68 2.68v1.7c0 .08479.026.23432.0901.4084.0631.17137.1395.30249.1939.36878l1.3495 1.57948c.8212.9743.8311 2.5164-.005 3.4825l-.002.0024-1.3426 1.5713c-.0543.0663-.1307.1974-.1938.3687-.0641.1741-.0901.3237-.0901.4084v1.7c0 1.4743-1.2058 2.68-2.68 2.68h-1.7c-.0848 0-.2343.026-.4084.0901-.1713.0631-.3024.1395-.3688.1939l-1.5794 1.3495c-.9744.8213-2.5164.8312-3.4826-.005l-.0023-.002-1.57127-1.3425c-.06452-.0528-.19666-.1295-.37132-.1934-.17763-.0651-.3271-.0906-.4059-.0906h-1.74c-1.47421 0-2.68-1.2057-2.68-2.68v-1.71c0-.084-.02541-.2362-.08756-.4102-.06293-.1762-.1364-.2989-.1805-.3501l-.00368-.0042-1.35238-1.5929c-.81452-.969-.81451-2.4962.00001-3.4651l.00222-.0027.56001-.65999c.26798-.31584.74127-.35464 1.05711-.08665s.35464.74124.08665 1.05714l-.55777.6573-.00098.0012c-.34415.4108-.34417 1.1216-.00006 1.5324l.00104.0013 1.34601 1.5852c.20485.2385.3557.5447.45494.8226.10035.281.17494.6088.17494.9147v1.71c0 .6458.53421 1.18 1.18 1.18h1.74c.3112 0 .64173.0795.9216.182.28042.1027.58205.2548.81854.4519l.0071.0059 1.57995 1.35.0043.0038c.3935.3413 1.1084.3511 1.5335-.0056l.0017-.0014 1.5831-1.3528c.2346-.1955.5323-.3478.8136-.4513.2809-.1034.6114-.1825.9266-.1825h1.7c.6458 0 1.18-.5342 1.18-1.18v-1.7c0-.3152.079-.6456.1824-.9266.1036-.2813.2559-.5789.4514-.8135l.006-.0071 1.35-1.58.0037-.0043c.3414-.3934.3511-1.1084-.0056-1.5334l-.0014-.0017-1.3527-1.58318c-.1955-.2346-.3478-.53229-.4514-.81358-.1034-.28091-.1824-.61139-.1824-.9266v-1.7c0-.64579-.5342-1.18-1.18-1.18h-1.7c-.3144 0-.6466-.07865-.9291-.18152-.2824-.10282-.5843-.25507-.821-.45231l-.0071-.00592-1.5843-1.35374c-.3935-.34139-1.1084-.35112-1.5334.00553z"/></g></svg>